<svg width="1256" height="120" viewBox="0 0 1256 120" fill="none" xmlns="http://www.w3.org/2000/svg">
<mask id="path-1-outside-1_2797_717" maskUnits="userSpaceOnUse" x="0" y="0" width="1256" height="120" fill="black">
<rect fill="white" width="1256" height="120"/>
<path d="M3.031 115V5.09999H52.957C64.889 5.09999 75.408 7.40266 84.514 12.008C93.62 16.5087 100.737 22.841 105.866 31.005C110.995 39.169 113.559 48.8507 113.559 60.05C113.559 71.1447 110.995 80.8263 105.866 89.095C100.737 97.259 93.62 103.644 84.514 108.249C75.408 112.75 64.889 115 52.957 115H3.031ZM28.465 94.119H51.701C59.0277 94.119 65.36 92.7583 70.698 90.037C76.1407 87.211 80.3273 83.2337 83.258 78.105C86.2933 72.9763 87.811 66.958 87.811 60.05C87.811 53.0373 86.2933 47.019 83.258 41.995C80.3273 36.8663 76.1407 32.9413 70.698 30.22C65.36 27.394 59.0277 25.981 51.701 25.981H28.465V94.119ZM187.533 49.374H240.442V69.156H187.533V49.374ZM189.417 94.59H249.234V115H164.14V5.09999H247.193V25.51H189.417V94.59ZM332.308 115L284.894 5.09999H312.369L353.817 102.44H337.646L379.722 5.09999H404.999L357.428 115H332.308ZM468.968 49.374H521.877V69.156H468.968V49.374ZM470.852 94.59H530.669V115H445.575V5.09999H528.628V25.51H470.852V94.59ZM582.306 115V5.09999H607.74V94.276H662.847V115H582.306ZM759.998 116.884C751.311 116.884 743.251 115.471 735.82 112.645C728.493 109.819 722.109 105.842 716.666 100.713C711.328 95.5843 707.141 89.566 704.106 82.658C701.175 75.75 699.71 68.214 699.71 60.05C699.71 51.886 701.175 44.35 704.106 37.442C707.141 30.534 711.38 24.5157 716.823 19.387C722.266 14.2583 728.65 10.281 735.977 7.45499C743.304 4.629 751.258 3.216 759.841 3.216C768.528 3.216 776.483 4.629 783.705 7.45499C791.032 10.281 797.364 14.2583 802.702 19.387C808.145 24.5157 812.384 30.534 815.419 37.442C818.454 44.2453 819.972 51.7813 819.972 60.05C819.972 68.214 818.454 75.8023 815.419 82.815C812.384 89.723 808.145 95.7413 802.702 100.87C797.364 105.894 791.032 109.819 783.705 112.645C776.483 115.471 768.581 116.884 759.998 116.884ZM759.841 95.218C764.76 95.218 769.261 94.3807 773.343 92.706C777.53 91.0313 781.193 88.624 784.333 85.484C787.473 82.344 789.88 78.6283 791.555 74.337C793.334 70.0457 794.224 65.2833 794.224 60.05C794.224 54.8167 793.334 50.0543 791.555 45.763C789.88 41.4717 787.473 37.756 784.333 34.616C781.298 31.476 777.687 29.0687 773.5 27.394C769.313 25.7193 764.76 24.882 759.841 24.882C754.922 24.882 750.369 25.7193 746.182 27.394C742.1 29.0687 738.489 31.476 735.349 34.616C732.209 37.756 729.749 41.4717 727.97 45.763C726.295 50.0543 725.458 54.8167 725.458 60.05C725.458 65.1787 726.295 69.941 727.97 74.337C729.749 78.6283 732.157 82.344 735.192 85.484C738.332 88.624 741.995 91.0313 746.182 92.706C750.369 94.3807 754.922 95.218 759.841 95.218ZM870.487 115V5.09999H918.058C927.896 5.09999 936.374 6.72233 943.492 9.967C950.609 13.107 956.104 17.66 959.977 23.626C963.849 29.592 965.786 36.7093 965.786 44.978C965.786 53.142 963.849 60.207 959.977 66.173C956.104 72.139 950.609 76.7443 943.492 79.989C936.374 83.129 927.896 84.699 918.058 84.699H884.617L895.921 73.238V115H870.487ZM895.921 76.064L884.617 63.975H916.645C924.495 63.975 930.356 62.3003 934.229 58.951C938.101 55.6017 940.038 50.944 940.038 44.978C940.038 38.9073 938.101 34.1973 934.229 30.848C930.356 27.4987 924.495 25.824 916.645 25.824H884.617L895.921 13.735V76.064ZM1038.74 49.374H1091.65V69.156H1038.74V49.374ZM1040.62 94.59H1100.44V115H1015.34V5.09999H1098.4V25.51H1040.62V94.59ZM1152.07 115V5.09999H1199.65C1209.48 5.09999 1217.96 6.72233 1225.08 9.967C1232.2 13.107 1237.69 17.66 1241.56 23.626C1245.44 29.592 1247.37 36.7093 1247.37 44.978C1247.37 53.142 1245.44 60.207 1241.56 66.173C1237.69 72.0343 1232.2 76.535 1225.08 79.675C1217.96 82.815 1209.48 84.385 1199.65 84.385H1166.2L1177.51 73.238V115H1152.07ZM1221.94 115L1194.46 75.122H1221.63L1249.41 115H1221.94ZM1177.51 76.064L1166.2 64.132H1198.23C1206.08 64.132 1211.94 62.4573 1215.82 59.108C1219.69 55.654 1221.63 50.944 1221.63 44.978C1221.63 38.9073 1219.69 34.1973 1215.82 30.848C1211.94 27.4987 1206.08 25.824 1198.23 25.824H1166.2L1177.51 13.735V76.064Z"/>
</mask>
<path d="M3.031 115H0.0310011V118H3.031V115ZM3.031 5.09999V2.09999H0.0310011V5.09999H3.031ZM84.514 12.008L83.1601 14.6851L83.1724 14.6913L83.1847 14.6974L84.514 12.008ZM105.866 31.005L103.326 32.6008L105.866 31.005ZM105.866 89.095L108.406 90.6908L108.411 90.6836L108.415 90.6763L105.866 89.095ZM84.514 108.249L85.8433 110.938L85.8556 110.932L85.8679 110.926L84.514 108.249ZM28.465 94.119H25.465V97.119H28.465V94.119ZM70.698 90.037L72.0606 92.7097L72.0705 92.7046L72.0804 92.6995L70.698 90.037ZM83.258 78.105L80.6763 76.577L80.6646 76.5967L80.6533 76.6166L83.258 78.105ZM83.258 41.995L80.6533 43.4834L80.6714 43.5151L80.6903 43.5463L83.258 41.995ZM70.698 30.22L69.2943 32.8714L69.3252 32.8877L69.3564 32.9033L70.698 30.22ZM28.465 25.981V22.981H25.465V25.981H28.465ZM3.031 115H6.031V5.09999H3.031H0.0310011V115H3.031ZM3.031 5.09999V8.09999H52.957V5.09999V2.09999H3.031V5.09999ZM52.957 5.09999V8.09999C64.4981 8.09999 74.5395 10.3252 83.1601 14.6851L84.514 12.008L85.8679 9.3309C76.2766 4.48008 65.2799 2.09999 52.957 2.09999V5.09999ZM84.514 12.008L83.1847 14.6974C91.8216 18.9662 98.508 24.9319 103.326 32.6008L105.866 31.005L108.406 29.4091C102.967 20.7501 95.4184 14.0511 85.8433 9.31856L84.514 12.008ZM105.866 31.005L103.326 32.6008C108.108 40.2137 110.559 49.3223 110.559 60.05H113.559H116.559C116.559 48.379 113.881 38.1243 108.406 29.4091L105.866 31.005ZM113.559 60.05H110.559C110.559 70.6661 108.111 79.7837 103.317 87.5137L105.866 89.095L108.415 90.6763C113.878 81.8689 116.559 71.6232 116.559 60.05H113.559ZM105.866 89.095L103.326 87.4992C98.5041 95.1744 91.8093 101.198 83.1601 105.572L84.514 108.249L85.8679 110.926C95.4307 106.09 102.971 99.3436 108.406 90.6908L105.866 89.095ZM84.514 108.249L83.1847 105.56C74.5584 109.823 64.5081 112 52.957 112V115V118C65.2699 118 76.2576 115.676 85.8433 110.938L84.514 108.249ZM52.957 115V112H3.031V115V118H52.957V115ZM28.465 94.119V97.119H51.701V94.119V91.119H28.465V94.119ZM51.701 94.119V97.119C59.3973 97.119 66.2168 95.6889 72.0606 92.7097L70.698 90.037L69.3354 87.3643C64.5032 89.8278 58.658 91.119 51.701 91.119V94.119ZM70.698 90.037L72.0804 92.6995C78.0143 89.6184 82.6346 85.2426 85.8627 79.5934L83.258 78.105L80.6533 76.6166C78.02 81.2248 74.267 84.8036 69.3156 87.3745L70.698 90.037ZM83.258 78.105L85.8397 79.633C89.1899 73.9723 90.811 67.4089 90.811 60.05H87.811H84.811C84.811 66.5071 83.3968 71.9804 80.6763 76.577L83.258 78.105ZM87.811 60.05H90.811C90.811 52.5976 89.1946 46.0196 85.8258 40.4436L83.258 41.995L80.6903 43.5463C83.3921 48.0183 84.811 53.477 84.811 60.05H87.811ZM83.258 41.995L85.8627 40.5066C82.629 34.8475 77.9951 30.5145 72.0396 27.5367L70.698 30.22L69.3564 32.9033C74.2862 35.3682 78.0257 38.8852 80.6533 43.4834L83.258 41.995ZM70.698 30.22L72.1017 27.5686C66.2483 24.4698 59.4137 22.981 51.701 22.981V25.981V28.981C58.6416 28.981 64.4717 30.3182 69.2943 32.8714L70.698 30.22ZM51.701 25.981V22.981H28.465V25.981V28.981H51.701V25.981ZM28.465 25.981H25.465V94.119H28.465H31.465V25.981H28.465ZM187.533 49.374V46.374H184.533V49.374H187.533ZM240.442 49.374H243.442V46.374H240.442V49.374ZM240.442 69.156V72.156H243.442V69.156H240.442ZM187.533 69.156H184.533V72.156H187.533V69.156ZM189.417 94.59H186.417V97.59H189.417V94.59ZM249.234 94.59H252.234V91.59H249.234V94.59ZM249.234 115V118H252.234V115H249.234ZM164.14 115H161.14V118H164.14V115ZM164.14 5.09999V2.09999H161.14V5.09999H164.14ZM247.193 5.09999H250.193V2.09999H247.193V5.09999ZM247.193 25.51V28.51H250.193V25.51H247.193ZM189.417 25.51V22.51H186.417V25.51H189.417ZM187.533 49.374V52.374H240.442V49.374V46.374H187.533V49.374ZM240.442 49.374H237.442V69.156H240.442H243.442V49.374H240.442ZM240.442 69.156V66.156H187.533V69.156V72.156H240.442V69.156ZM187.533 69.156H190.533V49.374H187.533H184.533V69.156H187.533ZM189.417 94.59V97.59H249.234V94.59V91.59H189.417V94.59ZM249.234 94.59H246.234V115H249.234H252.234V94.59H249.234ZM249.234 115V112H164.14V115V118H249.234V115ZM164.14 115H167.14V5.09999H164.14H161.14V115H164.14ZM164.14 5.09999V8.09999H247.193V5.09999V2.09999H164.14V5.09999ZM247.193 5.09999H244.193V25.51H247.193H250.193V5.09999H247.193ZM247.193 25.51V22.51H189.417V25.51V28.51H247.193V25.51ZM189.417 25.51H186.417V94.59H189.417H192.417V25.51H189.417ZM332.308 115L329.553 116.188L330.335 118H332.308V115ZM284.894 5.09999V2.09999H280.332L282.139 6.28839L284.894 5.09999ZM312.369 5.09999L315.129 3.92469L314.352 2.09999H312.369V5.09999ZM353.817 102.44V105.44H358.355L356.577 101.265L353.817 102.44ZM337.646 102.44L334.892 101.25L333.081 105.44H337.646V102.44ZM379.722 5.09999V2.09999H377.75L376.968 3.90966L379.722 5.09999ZM404.999 5.09999L407.752 6.29171L409.566 2.09999H404.999V5.09999ZM357.428 115V118H359.398L360.181 116.192L357.428 115ZM332.308 115L335.062 113.812L287.648 3.91159L284.894 5.09999L282.139 6.28839L329.553 116.188L332.308 115ZM284.894 5.09999V8.09999H312.369V5.09999V2.09999H284.894V5.09999ZM312.369 5.09999L309.609 6.2753L351.057 103.615L353.817 102.44L356.577 101.265L315.129 3.92469L312.369 5.09999ZM353.817 102.44V99.44H337.646V102.44V105.44H353.817V102.44ZM337.646 102.44L340.4 103.63L382.476 6.29032L379.722 5.09999L376.968 3.90966L334.892 101.25L337.646 102.44ZM379.722 5.09999V8.09999H404.999V5.09999V2.09999H379.722V5.09999ZM404.999 5.09999L402.246 3.90828L354.675 113.808L357.428 115L360.181 116.192L407.752 6.29171L404.999 5.09999ZM357.428 115V112H332.308V115V118H357.428V115ZM468.968 49.374V46.374H465.968V49.374H468.968ZM521.877 49.374H524.877V46.374H521.877V49.374ZM521.877 69.156V72.156H524.877V69.156H521.877ZM468.968 69.156H465.968V72.156H468.968V69.156ZM470.852 94.59H467.852V97.59H470.852V94.59ZM530.669 94.59H533.669V91.59H530.669V94.59ZM530.669 115V118H533.669V115H530.669ZM445.575 115H442.575V118H445.575V115ZM445.575 5.09999V2.09999H442.575V5.09999H445.575ZM528.628 5.09999H531.628V2.09999H528.628V5.09999ZM528.628 25.51V28.51H531.628V25.51H528.628ZM470.852 25.51V22.51H467.852V25.51H470.852ZM468.968 49.374V52.374H521.877V49.374V46.374H468.968V49.374ZM521.877 49.374H518.877V69.156H521.877H524.877V49.374H521.877ZM521.877 69.156V66.156H468.968V69.156V72.156H521.877V69.156ZM468.968 69.156H471.968V49.374H468.968H465.968V69.156H468.968ZM470.852 94.59V97.59H530.669V94.59V91.59H470.852V94.59ZM530.669 94.59H527.669V115H530.669H533.669V94.59H530.669ZM530.669 115V112H445.575V115V118H530.669V115ZM445.575 115H448.575V5.09999H445.575H442.575V115H445.575ZM445.575 5.09999V8.09999H528.628V5.09999V2.09999H445.575V5.09999ZM528.628 5.09999H525.628V25.51H528.628H531.628V5.09999H528.628ZM528.628 25.51V22.51H470.852V25.51V28.51H528.628V25.51ZM470.852 25.51H467.852V94.59H470.852H473.852V25.51H470.852ZM582.306 115H579.306V118H582.306V115ZM582.306 5.09999V2.09999H579.306V5.09999H582.306ZM607.74 5.09999H610.74V2.09999H607.74V5.09999ZM607.74 94.276H604.74V97.276H607.74V94.276ZM662.847 94.276H665.847V91.276H662.847V94.276ZM662.847 115V118H665.847V115H662.847ZM582.306 115H585.306V5.09999H582.306H579.306V115H582.306ZM582.306 5.09999V8.09999H607.74V5.09999V2.09999H582.306V5.09999ZM607.74 5.09999H604.74V94.276H607.74H610.74V5.09999H607.74ZM607.74 94.276V97.276H662.847V94.276V91.276H607.74V94.276ZM662.847 94.276H659.847V115H662.847H665.847V94.276H662.847ZM662.847 115V112H582.306V115V118H662.847V115ZM735.82 112.645L734.74 115.444L734.747 115.447L734.754 115.449L735.82 112.645ZM716.666 100.713L714.587 102.876L714.598 102.886L714.609 102.896L716.666 100.713ZM704.106 82.658L701.344 83.8297L701.352 83.8473L701.359 83.8648L704.106 82.658ZM704.106 37.442L701.359 36.2352L701.352 36.2527L701.344 36.2703L704.106 37.442ZM735.977 7.45499L734.897 4.65598V4.65599L735.977 7.45499ZM783.705 7.45499L782.612 10.2487L782.619 10.2514L782.625 10.254L783.705 7.45499ZM802.702 19.387L800.623 21.5503L800.634 21.5604L800.645 21.5704L802.702 19.387ZM815.419 37.442L812.672 38.6488L812.676 38.6566L812.679 38.6643L815.419 37.442ZM815.419 82.815L818.165 84.0218L818.169 84.0143L818.172 84.0067L815.419 82.815ZM802.702 100.87L804.758 103.055L804.759 103.053L802.702 100.87ZM783.705 112.645L782.625 109.846L782.619 109.849L782.612 109.851L783.705 112.645ZM773.343 92.706L772.229 89.9206L772.216 89.9255L772.204 89.9305L773.343 92.706ZM784.333 85.484L782.212 83.3627L784.333 85.484ZM791.555 74.337L788.784 73.188L788.772 73.217L788.76 73.2464L791.555 74.337ZM791.555 45.763L788.76 46.8536L788.772 46.883L788.784 46.912L791.555 45.763ZM784.333 34.616L782.176 36.7011L782.194 36.7193L782.212 36.7373L784.333 34.616ZM773.5 27.394L772.386 30.1794L773.5 27.394ZM746.182 27.394L745.068 24.6086L745.055 24.6135L745.043 24.6185L746.182 27.394ZM735.349 34.616L737.47 36.7373L735.349 34.616ZM727.97 45.763L725.199 44.614L725.187 44.643L725.175 44.6724L727.97 45.763ZM727.97 74.337L725.166 75.405L725.182 75.4457L725.199 75.486L727.97 74.337ZM735.192 85.484L733.035 87.5691L733.053 87.5873L733.071 87.6053L735.192 85.484ZM746.182 92.706L745.068 95.4914L746.182 92.706ZM759.998 116.884V113.884C751.641 113.884 743.947 112.526 736.886 109.841L735.82 112.645L734.754 115.449C742.556 118.416 750.98 119.884 759.998 119.884V116.884ZM735.82 112.645L736.9 109.846C729.917 107.153 723.869 103.378 718.723 98.5296L716.666 100.713L714.609 102.896C720.348 108.305 727.069 112.485 734.74 115.444L735.82 112.645ZM716.666 100.713L718.744 98.5497C713.695 93.6984 709.733 88.0068 706.852 81.4512L704.106 82.658L701.359 83.8648C704.549 91.1252 708.961 97.4703 714.587 102.876L716.666 100.713ZM704.106 82.658L706.868 81.4864C704.108 74.9805 702.71 67.8471 702.71 60.05H699.71H696.71C696.71 68.5809 698.243 76.5195 701.344 83.8297L704.106 82.658ZM699.71 60.05H702.71C702.71 52.2529 704.108 45.1195 706.868 38.6136L704.106 37.442L701.344 36.2703C698.243 43.5805 696.71 51.5191 696.71 60.05H699.71ZM704.106 37.442L706.852 38.6488C709.727 32.1059 713.733 26.4205 718.88 21.5704L716.823 19.387L714.766 17.2036C709.027 22.6108 704.555 28.9621 701.359 36.2352L704.106 37.442ZM716.823 19.387L718.88 21.5704C724.026 16.7216 730.074 12.9472 737.057 10.254L735.977 7.45499L734.897 4.65599C727.226 7.61478 720.505 11.7951 714.766 17.2036L716.823 19.387ZM735.977 7.45499L737.057 10.254C744.008 7.57269 751.593 6.216 759.841 6.216V3.216V0.216C750.923 0.216 742.599 1.6853 734.897 4.65598L735.977 7.45499ZM759.841 3.216V6.216C768.199 6.216 775.777 7.57445 782.612 10.2487L783.705 7.45499L784.798 4.66126C777.188 1.68354 768.858 0.216 759.841 0.216V3.216ZM783.705 7.45499L782.625 10.254C789.603 12.9454 795.59 16.7143 800.623 21.5503L802.702 19.387L804.78 17.2237C799.138 11.8023 792.46 7.61657 784.785 4.65599L783.705 7.45499ZM802.702 19.387L800.645 21.5704C805.792 26.4205 809.797 32.1059 812.672 38.6488L815.419 37.442L818.165 36.2352C814.97 28.9621 810.498 22.6108 804.759 17.2036L802.702 19.387ZM815.419 37.442L812.679 38.6643C815.525 45.0426 816.972 52.156 816.972 60.05H819.972H822.972C822.972 51.4067 821.384 43.448 818.159 36.2197L815.419 37.442ZM819.972 60.05H816.972C816.972 67.8325 815.527 75.0121 812.666 81.6233L815.419 82.815L818.172 84.0067C821.381 76.5926 822.972 68.5955 822.972 60.05H819.972ZM815.419 82.815L812.672 81.6082C809.797 88.1511 805.792 93.8365 800.645 98.6866L802.702 100.87L804.759 103.053C810.498 97.6462 814.97 91.2949 818.165 84.0218L815.419 82.815ZM802.702 100.87L800.646 98.6854C795.61 103.425 789.616 107.15 782.625 109.846L783.705 112.645L784.785 115.444C792.447 112.488 799.118 108.363 804.758 103.055L802.702 100.87ZM783.705 112.645L782.612 109.851C775.773 112.527 768.246 113.884 759.998 113.884V116.884V119.884C768.915 119.884 777.192 118.415 784.798 115.439L783.705 112.645ZM759.841 95.218V98.218C765.106 98.218 769.999 97.3205 774.482 95.4815L773.343 92.706L772.204 89.9305C768.523 91.4408 764.415 92.218 759.841 92.218V95.218ZM773.343 92.706L774.457 95.4914C779.015 93.6683 783.022 91.0371 786.454 87.6053L784.333 85.484L782.212 83.3627C779.363 86.2109 776.044 88.3944 772.229 89.9206L773.343 92.706ZM784.333 85.484L786.454 87.6053C789.899 84.161 792.53 80.0906 794.35 75.4276L791.555 74.337L788.76 73.2464C787.231 77.1661 785.047 80.527 782.212 83.3627L784.333 85.484ZM791.555 74.337L794.326 75.486C796.274 70.7872 797.224 65.6279 797.224 60.05H794.224H791.224C791.224 64.9387 790.394 69.3042 788.784 73.188L791.555 74.337ZM794.224 60.05H797.224C797.224 54.4721 796.274 49.3128 794.326 44.614L791.555 45.763L788.784 46.912C790.394 50.7958 791.224 55.1612 791.224 60.05H794.224ZM791.555 45.763L794.35 44.6724C792.53 40.0094 789.899 35.939 786.454 32.4947L784.333 34.616L782.212 36.7373C785.047 39.573 787.231 42.9339 788.76 46.8536L791.555 45.763ZM784.333 34.616L786.49 32.5309C783.151 29.0765 779.181 26.4352 774.614 24.6086L773.5 27.394L772.386 30.1794C776.192 31.7021 779.445 33.8755 782.176 36.7011L784.333 34.616ZM773.5 27.394L774.614 24.6086C770.042 22.7798 765.107 21.882 759.841 21.882V24.882V27.882C764.413 27.882 768.584 28.6589 772.386 30.1794L773.5 27.394ZM759.841 24.882V21.882C754.575 21.882 749.64 22.7798 745.068 24.6086L746.182 27.394L747.296 30.1794C751.097 28.6589 755.268 27.882 759.841 27.882V24.882ZM746.182 27.394L745.043 24.6185C740.591 26.445 736.647 29.0755 733.228 32.4947L735.349 34.616L737.47 36.7373C740.331 33.8764 743.609 31.6923 747.321 30.1695L746.182 27.394ZM735.349 34.616L733.228 32.4947C729.797 35.9258 727.122 39.9761 725.199 44.614L727.97 45.763L730.741 46.912C732.377 42.9672 734.621 39.5862 737.47 36.7373L735.349 34.616ZM727.97 45.763L725.175 44.6724C723.348 49.3553 722.458 54.4939 722.458 60.05H725.458H728.458C728.458 55.1395 729.243 50.7533 730.765 46.8536L727.97 45.763ZM725.458 60.05H722.458C722.458 65.5106 723.351 70.6384 725.166 75.405L727.97 74.337L730.773 73.269C729.24 69.2436 728.458 64.8467 728.458 60.05H725.458ZM727.97 74.337L725.199 75.486C727.113 80.1028 729.722 84.1415 733.035 87.5691L735.192 85.484L737.349 83.3989C734.592 80.5465 732.386 77.1539 730.741 73.188L727.97 74.337ZM735.192 85.484L733.071 87.6053C736.502 91.0371 740.51 93.6683 745.068 95.4914L746.182 92.706L747.296 89.9206C743.481 88.3944 740.161 86.2109 737.313 83.3627L735.192 85.484ZM746.182 92.706L745.068 95.4914C749.64 97.3202 754.575 98.218 759.841 98.218V95.218V92.218C755.268 92.218 751.097 91.4411 747.296 89.9206L746.182 92.706ZM870.487 115H867.487V118H870.487V115ZM870.487 5.09999V2.09999H867.487V5.09999H870.487ZM943.492 9.967L942.247 12.6967L942.264 12.7043L942.281 12.7118L943.492 9.967ZM959.977 23.626L957.46 25.2594L959.977 23.626ZM943.492 79.989L944.703 82.7337L944.719 82.7263L944.736 82.7187L943.492 79.989ZM884.617 84.699L882.481 82.5924L877.444 87.699H884.617V84.699ZM895.921 73.238H898.921V65.9241L893.785 71.1314L895.921 73.238ZM895.921 115V118H898.921V115H895.921ZM895.921 76.064L893.729 78.113L898.921 83.6648V76.064H895.921ZM884.617 63.975V60.975H877.704L882.425 66.024L884.617 63.975ZM884.617 25.824L882.425 23.775L877.704 28.824H884.617V25.824ZM895.921 13.735H898.921V6.13423L893.729 11.686L895.921 13.735ZM870.487 115H873.487V5.09999H870.487H867.487V115H870.487ZM870.487 5.09999V8.09999H918.058V5.09999V2.09999H870.487V5.09999ZM918.058 5.09999V8.09999C927.574 8.09999 935.608 9.66985 942.247 12.6967L943.492 9.967L944.736 7.23727C937.141 3.7748 928.218 2.09999 918.058 2.09999V5.09999ZM943.492 9.967L942.281 12.7118C948.916 15.6392 953.935 19.8286 957.46 25.2594L959.977 23.626L962.493 21.9926C958.273 15.4914 952.302 10.5748 944.703 7.22224L943.492 9.967ZM959.977 23.626L957.46 25.2594C960.969 30.6642 962.786 37.1928 962.786 44.978H965.786H968.786C968.786 36.2259 966.73 28.5198 962.493 21.9926L959.977 23.626ZM965.786 44.978H962.786C962.786 52.6501 960.973 59.1287 957.46 64.5396L959.977 66.173L962.493 67.8064C966.726 61.2853 968.786 53.6339 968.786 44.978H965.786ZM959.977 66.173L957.46 64.5396C953.929 69.9793 948.899 74.227 942.247 77.2593L943.492 79.989L944.736 82.7187C952.319 79.2616 958.279 74.2987 962.493 67.8064L959.977 66.173ZM943.492 79.989L942.281 77.2442C935.632 80.1777 927.586 81.699 918.058 81.699V84.699V87.699C928.207 87.699 937.117 86.0803 944.703 82.7337L943.492 79.989ZM918.058 84.699V81.699H884.617V84.699V87.699H918.058V84.699ZM884.617 84.699L886.753 86.8056L898.057 75.3446L895.921 73.238L893.785 71.1314L882.481 82.5924L884.617 84.699ZM895.921 73.238H892.921V115H895.921H898.921V73.238H895.921ZM895.921 115V112H870.487V115V118H895.921V115ZM895.921 76.064L898.112 74.015L886.808 61.926L884.617 63.975L882.425 66.024L893.729 78.113L895.921 76.064ZM884.617 63.975V66.975H916.645V63.975V60.975H884.617V63.975ZM916.645 63.975V66.975C924.847 66.975 931.548 65.2362 936.191 61.2201L934.229 58.951L932.266 56.6819C929.164 59.3645 924.143 60.975 916.645 60.975V63.975ZM934.229 58.951L936.191 61.2201C940.834 57.2044 943.038 51.6559 943.038 44.978H940.038H937.038C937.038 50.2321 935.368 53.9989 932.266 56.6819L934.229 58.951ZM940.038 44.978H943.038C943.038 38.2141 940.846 32.605 936.191 28.5789L934.229 30.848L932.266 33.1171C935.356 35.7896 937.038 39.6005 937.038 44.978H940.038ZM934.229 30.848L936.191 28.5789C931.548 24.5628 924.847 22.824 916.645 22.824V25.824V28.824C924.143 28.824 929.164 30.4345 932.266 33.1171L934.229 30.848ZM916.645 25.824V22.824H884.617V25.824V28.824H916.645V25.824ZM884.617 25.824L886.808 27.873L898.112 15.784L895.921 13.735L893.729 11.686L882.425 23.775L884.617 25.824ZM895.921 13.735H892.921V76.064H895.921H898.921V13.735H895.921ZM1038.74 49.374V46.374H1035.74V49.374H1038.74ZM1091.65 49.374H1094.65V46.374H1091.65V49.374ZM1091.65 69.156V72.156H1094.65V69.156H1091.65ZM1038.74 69.156H1035.74V72.156H1038.74V69.156ZM1040.62 94.59H1037.62V97.59H1040.62V94.59ZM1100.44 94.59H1103.44V91.59H1100.44V94.59ZM1100.44 115V118H1103.44V115H1100.44ZM1015.34 115H1012.34V118H1015.34V115ZM1015.34 5.09999V2.09999H1012.34V5.09999H1015.34ZM1098.4 5.09999H1101.4V2.09999H1098.4V5.09999ZM1098.4 25.51V28.51H1101.4V25.51H1098.4ZM1040.62 25.51V22.51H1037.62V25.51H1040.62ZM1038.74 49.374V52.374H1091.65V49.374V46.374H1038.74V49.374ZM1091.65 49.374H1088.65V69.156H1091.65H1094.65V49.374H1091.65ZM1091.65 69.156V66.156H1038.74V69.156V72.156H1091.65V69.156ZM1038.74 69.156H1041.74V49.374H1038.74H1035.74V69.156H1038.74ZM1040.62 94.59V97.59H1100.44V94.59V91.59H1040.62V94.59ZM1100.44 94.59H1097.44V115H1100.44H1103.44V94.59H1100.44ZM1100.44 115V112H1015.34V115V118H1100.44V115ZM1015.34 115H1018.34V5.09999H1015.34H1012.34V115H1015.34ZM1015.34 5.09999V8.09999H1098.4V5.09999V2.09999H1015.34V5.09999ZM1098.4 5.09999H1095.4V25.51H1098.4H1101.4V5.09999H1098.4ZM1098.4 25.51V22.51H1040.62V25.51V28.51H1098.4V25.51ZM1040.62 25.51H1037.62V94.59H1040.62H1043.62V25.51H1040.62ZM1152.07 115H1149.07V118H1152.07V115ZM1152.07 5.09999V2.09999H1149.07V5.09999H1152.07ZM1225.08 9.967L1223.84 12.6967L1223.85 12.7043L1223.87 12.7118L1225.08 9.967ZM1241.56 23.626L1239.05 25.2594L1241.56 23.626ZM1241.56 66.173L1244.07 67.8268L1244.07 67.8166L1244.08 67.8064L1241.56 66.173ZM1225.08 79.675L1226.29 82.4198L1225.08 79.675ZM1166.2 84.385L1164.1 82.2489L1158.89 87.385H1166.2V84.385ZM1177.51 73.238H1180.51V66.0664L1175.4 71.1019L1177.51 73.238ZM1177.51 115V118H1180.51V115H1177.51ZM1221.94 115L1219.47 116.702L1220.36 118H1221.94V115ZM1194.46 75.122V72.122H1188.75L1191.99 76.8241L1194.46 75.122ZM1221.63 75.122L1224.09 73.4068L1223.19 72.122H1221.63V75.122ZM1249.41 115V118H1255.16L1251.88 113.285L1249.41 115ZM1177.51 76.064L1175.33 78.1272L1180.51 83.5928V76.064H1177.51ZM1166.2 64.132V61.132H1159.23L1164.03 66.1952L1166.2 64.132ZM1215.82 59.108L1217.78 61.3771L1217.8 61.3621L1217.81 61.3469L1215.82 59.108ZM1166.2 25.824L1164.01 23.775L1159.29 28.824H1166.2V25.824ZM1177.51 13.735H1180.51V6.13423L1175.32 11.686L1177.51 13.735ZM1152.07 115H1155.07V5.09999H1152.07H1149.07V115H1152.07ZM1152.07 5.09999V8.09999H1199.65V5.09999V2.09999H1152.07V5.09999ZM1199.65 5.09999V8.09999C1209.16 8.09999 1217.2 9.66985 1223.84 12.6967L1225.08 9.967L1226.32 7.23727C1218.73 3.7748 1209.81 2.09999 1199.65 2.09999V5.09999ZM1225.08 9.967L1223.87 12.7118C1230.5 15.6392 1235.52 19.8286 1239.05 25.2594L1241.56 23.626L1244.08 21.9926C1239.86 15.4914 1233.89 10.5748 1226.29 7.22224L1225.08 9.967ZM1241.56 23.626L1239.05 25.2594C1242.56 30.6642 1244.37 37.1928 1244.37 44.978H1247.37H1250.37C1250.37 36.2259 1248.32 28.5198 1244.08 21.9926L1241.56 23.626ZM1247.37 44.978H1244.37C1244.37 52.6501 1242.56 59.1287 1239.05 64.5396L1241.56 66.173L1244.08 67.8064C1248.31 61.2853 1250.37 53.6339 1250.37 44.978H1247.37ZM1241.56 66.173L1239.06 64.5192C1235.54 69.8498 1230.52 73.9967 1223.87 76.9302L1225.08 79.675L1226.29 82.4198C1233.88 79.0733 1239.84 74.2188 1244.07 67.8268L1241.56 66.173ZM1225.08 79.675L1223.87 76.9302C1217.22 79.8637 1209.17 81.385 1199.65 81.385V84.385V87.385C1209.79 87.385 1218.71 85.7663 1226.29 82.4198L1225.08 79.675ZM1199.65 84.385V81.385H1166.2V84.385V87.385H1199.65V84.385ZM1166.2 84.385L1168.31 86.5211L1179.62 75.3741L1177.51 73.238L1175.4 71.1019L1164.1 82.2489L1166.2 84.385ZM1177.51 73.238H1174.51V115H1177.51H1180.51V73.238H1177.51ZM1177.51 115V112H1152.07V115V118H1177.51V115ZM1221.94 115L1224.41 113.298L1196.94 73.4199L1194.46 75.122L1191.99 76.8241L1219.47 116.702L1221.94 115ZM1194.46 75.122V78.122H1221.63V75.122V72.122H1194.46V75.122ZM1221.63 75.122L1219.16 76.8372L1246.95 116.715L1249.41 115L1251.88 113.285L1224.09 73.4068L1221.63 75.122ZM1249.41 115V112H1221.94V115V118H1249.41V115ZM1177.51 76.064L1179.69 74.0008L1168.38 62.0688L1166.2 64.132L1164.03 66.1952L1175.33 78.1272L1177.51 76.064ZM1166.2 64.132V67.132H1198.23V64.132V61.132H1166.2V64.132ZM1198.23 64.132V67.132C1206.43 67.132 1213.14 65.3932 1217.78 61.3771L1215.82 59.108L1213.85 56.8389C1210.75 59.5215 1205.73 61.132 1198.23 61.132V64.132ZM1215.82 59.108L1217.81 61.3469C1222.42 57.2359 1224.63 51.6577 1224.63 44.978H1221.63H1218.63C1218.63 50.2303 1216.96 54.0721 1213.82 56.8691L1215.82 59.108ZM1221.63 44.978H1224.63C1224.63 38.2141 1222.43 32.605 1217.78 28.5789L1215.82 30.848L1213.85 33.1171C1216.94 35.7896 1218.63 39.6005 1218.63 44.978H1221.63ZM1215.82 30.848L1217.78 28.5789C1213.14 24.5628 1206.43 22.824 1198.23 22.824V25.824V28.824C1205.73 28.824 1210.75 30.4345 1213.85 33.1171L1215.82 30.848ZM1198.23 25.824V22.824H1166.2V25.824V28.824H1198.23V25.824ZM1166.2 25.824L1168.4 27.873L1179.7 15.784L1177.51 13.735L1175.32 11.686L1164.01 23.775L1166.2 25.824ZM1177.51 13.735H1174.51V76.064H1177.51H1180.51V13.735H1177.51Z" fill="white" mask="url(#path-1-outside-1_2797_717)"/>
</svg>
