<svg width="1468" height="120" viewBox="0 0 1468 120" fill="none" xmlns="http://www.w3.org/2000/svg">
<mask id="path-1-outside-1_2797_715" maskUnits="userSpaceOnUse" x="0" y="0" width="1468" height="120" fill="black">
<rect fill="white" width="1468" height="120"/>
<path d="M26.581 54.555H79.333V74.965H26.581V54.555ZM28.465 115H3.031V5.09999H86.084V25.51H28.465V115ZM166.102 115V5.09999H213.673C223.512 5.09999 231.99 6.72233 239.107 9.967C246.225 13.107 251.72 17.66 255.592 23.626C259.465 29.592 261.401 36.7093 261.401 44.978C261.401 53.142 259.465 60.207 255.592 66.173C251.72 72.0343 246.225 76.535 239.107 79.675C231.99 82.815 223.512 84.385 213.673 84.385H180.232L191.536 73.238V115H166.102ZM235.967 115L208.492 75.122H235.653L263.442 115H235.967ZM191.536 76.064L180.232 64.132H212.26C220.11 64.132 225.972 62.4573 229.844 59.108C233.717 55.654 235.653 50.944 235.653 44.978C235.653 38.9073 233.717 34.1973 229.844 30.848C225.972 27.4987 220.11 25.824 212.26 25.824H180.232L191.536 13.735V76.064ZM397.733 116.884C389.045 116.884 380.986 115.471 373.555 112.645C366.228 109.819 359.843 105.842 354.401 100.713C349.063 95.5843 344.876 89.566 341.841 82.658C338.91 75.75 337.445 68.214 337.445 60.05C337.445 51.886 338.91 44.35 341.841 37.442C344.876 30.534 349.115 24.5157 354.558 19.387C360 14.2583 366.385 10.281 373.712 7.45499C381.038 4.629 388.993 3.216 397.576 3.216C406.263 3.216 414.218 4.629 421.44 7.45499C428.766 10.281 435.099 14.2583 440.437 19.387C445.879 24.5157 450.118 30.534 453.154 37.442C456.189 44.2453 457.707 51.7813 457.707 60.05C457.707 68.214 456.189 75.8023 453.154 82.815C450.118 89.723 445.879 95.7413 440.437 100.87C435.099 105.894 428.766 109.819 421.44 112.645C414.218 115.471 406.315 116.884 397.733 116.884ZM397.576 95.218C402.495 95.218 406.996 94.3807 411.078 92.706C415.264 91.0313 418.928 88.624 422.068 85.484C425.208 82.344 427.615 78.6283 429.29 74.337C431.069 70.0457 431.959 65.2833 431.959 60.05C431.959 54.8167 431.069 50.0543 429.29 45.763C427.615 41.4717 425.208 37.756 422.068 34.616C419.032 31.476 415.421 29.0687 411.235 27.394C407.048 25.7193 402.495 24.882 397.576 24.882C392.656 24.882 388.103 25.7193 383.917 27.394C379.835 29.0687 376.224 31.476 373.084 34.616C369.944 37.756 367.484 41.4717 365.705 45.763C364.03 50.0543 363.193 54.8167 363.193 60.05C363.193 65.1787 364.03 69.941 365.705 74.337C367.484 78.6283 369.891 82.344 372.927 85.484C376.067 88.624 379.73 91.0313 383.917 92.706C388.103 94.3807 392.656 95.218 397.576 95.218ZM539.621 115V5.09999H560.659L625.5 84.228H615.295V5.09999H640.415V115H619.534L554.536 35.872H564.741V115H539.621ZM751.982 115V25.824H716.814V5.09999H812.584V25.824H777.416V115H751.982ZM1019.72 49.374H1072.63V69.156H1019.72V49.374ZM1021.61 94.59H1081.43V115H996.332V5.09999H1079.38V25.51H1021.61V94.59ZM1164.46 115V5.09999H1185.5L1250.34 84.228H1240.14V5.09999H1265.26V115H1244.38L1179.38 35.872H1189.58V115H1164.46ZM1354.06 115V5.09999H1403.98C1415.92 5.09999 1426.44 7.40266 1435.54 12.008C1444.65 16.5087 1451.77 22.841 1456.89 31.005C1462.02 39.169 1464.59 48.8507 1464.59 60.05C1464.59 71.1447 1462.02 80.8263 1456.89 89.095C1451.77 97.259 1444.65 103.644 1435.54 108.249C1426.44 112.75 1415.92 115 1403.98 115H1354.06ZM1379.49 94.119H1402.73C1410.06 94.119 1416.39 92.7583 1421.73 90.037C1427.17 87.211 1431.36 83.2337 1434.29 78.105C1437.32 72.9763 1438.84 66.958 1438.84 60.05C1438.84 53.0373 1437.32 47.019 1434.29 41.995C1431.36 36.8663 1427.17 32.9413 1421.73 30.22C1416.39 27.394 1410.06 25.981 1402.73 25.981H1379.49V94.119Z"/>
</mask>
<path d="M26.581 54.555V51.555H23.581V54.555H26.581ZM79.333 54.555H82.333V51.555H79.333V54.555ZM79.333 74.965V77.965H82.333V74.965H79.333ZM26.581 74.965H23.581V77.965H26.581V74.965ZM28.465 115V118H31.465V115H28.465ZM3.031 115H0.0310011V118H3.031V115ZM3.031 5.09999V2.09999H0.0310011V5.09999H3.031ZM86.084 5.09999H89.084V2.09999H86.084V5.09999ZM86.084 25.51V28.51H89.084V25.51H86.084ZM28.465 25.51V22.51H25.465V25.51H28.465ZM26.581 54.555V57.555H79.333V54.555V51.555H26.581V54.555ZM79.333 54.555H76.333V74.965H79.333H82.333V54.555H79.333ZM79.333 74.965V71.965H26.581V74.965V77.965H79.333V74.965ZM26.581 74.965H29.581V54.555H26.581H23.581V74.965H26.581ZM28.465 115V112H3.031V115V118H28.465V115ZM3.031 115H6.031V5.09999H3.031H0.0310011V115H3.031ZM3.031 5.09999V8.09999H86.084V5.09999V2.09999H3.031V5.09999ZM86.084 5.09999H83.084V25.51H86.084H89.084V5.09999H86.084ZM86.084 25.51V22.51H28.465V25.51V28.51H86.084V25.51ZM28.465 25.51H25.465V115H28.465H31.465V25.51H28.465ZM166.102 115H163.102V118H166.102V115ZM166.102 5.09999V2.09999H163.102V5.09999H166.102ZM239.107 9.967L237.863 12.6967L237.88 12.7043L237.897 12.7118L239.107 9.967ZM255.592 23.626L253.076 25.2594L255.592 23.626ZM255.592 66.173L258.095 67.8268L258.102 67.8166L258.109 67.8064L255.592 66.173ZM239.107 79.675L240.318 82.4198L239.107 79.675ZM180.232 84.385L178.126 82.2489L172.918 87.385H180.232V84.385ZM191.536 73.238H194.536V66.0664L189.43 71.1019L191.536 73.238ZM191.536 115V118H194.536V115H191.536ZM235.967 115L233.497 116.702L234.391 118H235.967V115ZM208.492 75.122V72.122H202.782L206.022 76.8241L208.492 75.122ZM235.653 75.122L238.115 73.4068L237.219 72.122H235.653V75.122ZM263.442 115V118H269.19L265.904 113.285L263.442 115ZM191.536 76.064L189.359 78.1272L194.536 83.5928V76.064H191.536ZM180.232 64.132V61.132H173.258L178.055 66.1952L180.232 64.132ZM229.844 59.108L231.807 61.3771L231.824 61.3621L231.841 61.3469L229.844 59.108ZM180.232 25.824L178.041 23.775L173.32 28.824H180.232V25.824ZM191.536 13.735H194.536V6.13423L189.345 11.686L191.536 13.735ZM166.102 115H169.102V5.09999H166.102H163.102V115H166.102ZM166.102 5.09999V8.09999H213.673V5.09999V2.09999H166.102V5.09999ZM213.673 5.09999V8.09999C223.19 8.09999 231.223 9.66985 237.863 12.6967L239.107 9.967L240.352 7.23727C232.757 3.7748 223.834 2.09999 213.673 2.09999V5.09999ZM239.107 9.967L237.897 12.7118C244.532 15.6392 249.551 19.8286 253.076 25.2594L255.592 23.626L258.109 21.9926C253.889 15.4914 247.918 10.5748 240.318 7.22224L239.107 9.967ZM255.592 23.626L253.076 25.2594C256.585 30.6642 258.401 37.1928 258.401 44.978H261.401H264.401C264.401 36.2259 262.346 28.5198 258.109 21.9926L255.592 23.626ZM261.401 44.978H258.401C258.401 52.6501 256.588 59.1287 253.076 64.5396L255.592 66.173L258.109 67.8064C262.342 61.2853 264.401 53.6339 264.401 44.978H261.401ZM255.592 66.173L253.089 64.5192C249.568 69.8498 244.546 73.9967 237.897 76.9302L239.107 79.675L240.318 82.4198C247.904 79.0733 253.872 74.2188 258.095 67.8268L255.592 66.173ZM239.107 79.675L237.897 76.9302C231.247 79.8637 223.202 81.385 213.673 81.385V84.385V87.385C223.823 87.385 232.733 85.7663 240.318 82.4198L239.107 79.675ZM213.673 84.385V81.385H180.232V84.385V87.385H213.673V84.385ZM180.232 84.385L182.339 86.5211L193.643 75.3741L191.536 73.238L189.43 71.1019L178.126 82.2489L180.232 84.385ZM191.536 73.238H188.536V115H191.536H194.536V73.238H191.536ZM191.536 115V112H166.102V115V118H191.536V115ZM235.967 115L238.438 113.298L210.963 73.4199L208.492 75.122L206.022 76.8241L233.497 116.702L235.967 115ZM208.492 75.122V78.122H235.653V75.122V72.122H208.492V75.122ZM235.653 75.122L233.192 76.8372L260.981 116.715L263.442 115L265.904 113.285L238.115 73.4068L235.653 75.122ZM263.442 115V112H235.967V115V118H263.442V115ZM191.536 76.064L193.714 74.0008L182.41 62.0688L180.232 64.132L178.055 66.1952L189.359 78.1272L191.536 76.064ZM180.232 64.132V67.132H212.26V64.132V61.132H180.232V64.132ZM212.26 64.132V67.132C220.463 67.132 227.163 65.3932 231.807 61.3771L229.844 59.108L227.882 56.8389C224.78 59.5215 219.758 61.132 212.26 61.132V64.132ZM229.844 59.108L231.841 61.3469C236.451 57.2359 238.653 51.6577 238.653 44.978H235.653H232.653C232.653 50.2303 230.984 54.0721 227.848 56.8691L229.844 59.108ZM235.653 44.978H238.653C238.653 38.2141 236.462 32.605 231.807 28.5789L229.844 30.848L227.882 33.1171C230.972 35.7896 232.653 39.6005 232.653 44.978H235.653ZM229.844 30.848L231.807 28.5789C227.163 24.5628 220.463 22.824 212.26 22.824V25.824V28.824C219.758 28.824 224.78 30.4345 227.882 33.1171L229.844 30.848ZM212.26 25.824V22.824H180.232V25.824V28.824H212.26V25.824ZM180.232 25.824L182.424 27.873L193.728 15.784L191.536 13.735L189.345 11.686L178.041 23.775L180.232 25.824ZM191.536 13.735H188.536V76.064H191.536H194.536V13.735H191.536ZM373.555 112.645L372.475 115.444L372.482 115.447L372.488 115.449L373.555 112.645ZM354.401 100.713L352.322 102.876L352.333 102.886L352.343 102.896L354.401 100.713ZM341.841 82.658L339.079 83.8297L339.086 83.8473L339.094 83.8648L341.841 82.658ZM341.841 37.442L339.094 36.2352L339.086 36.2527L339.079 36.2703L341.841 37.442ZM373.712 7.45499L372.632 4.65598V4.65599L373.712 7.45499ZM421.44 7.45499L420.346 10.2487L420.353 10.2514L420.36 10.254L421.44 7.45499ZM440.437 19.387L438.358 21.5503L438.369 21.5604L438.379 21.5704L440.437 19.387ZM453.154 37.442L450.407 38.6488L450.411 38.6566L450.414 38.6643L453.154 37.442ZM453.154 82.815L455.9 84.0218L455.904 84.0143L455.907 84.0067L453.154 82.815ZM440.437 100.87L442.493 103.055L442.494 103.053L440.437 100.87ZM421.44 112.645L420.36 109.846L420.353 109.849L420.346 109.851L421.44 112.645ZM411.078 92.706L409.964 89.9206L409.951 89.9255L409.939 89.9305L411.078 92.706ZM422.068 85.484L419.946 83.3627L422.068 85.484ZM429.29 74.337L426.518 73.188L426.506 73.217L426.495 73.2464L429.29 74.337ZM429.29 45.763L426.495 46.8536L426.506 46.883L426.518 46.912L429.29 45.763ZM422.068 34.616L419.911 36.7011L419.928 36.7193L419.946 36.7373L422.068 34.616ZM411.235 27.394L410.121 30.1794L411.235 27.394ZM383.917 27.394L382.803 24.6086L382.79 24.6135L382.778 24.6185L383.917 27.394ZM373.084 34.616L375.205 36.7373L373.084 34.616ZM365.705 45.763L362.933 44.614L362.921 44.643L362.91 44.6724L365.705 45.763ZM365.705 74.337L362.901 75.405L362.917 75.4457L362.933 75.486L365.705 74.337ZM372.927 85.484L370.77 87.5691L370.787 87.5873L370.805 87.6053L372.927 85.484ZM383.917 92.706L382.803 95.4914L383.917 92.706ZM397.733 116.884V113.884C389.376 113.884 381.682 112.526 374.621 109.841L373.555 112.645L372.488 115.449C380.291 118.416 388.715 119.884 397.733 119.884V116.884ZM373.555 112.645L374.634 109.846C367.652 107.153 361.604 103.378 356.458 98.5296L354.401 100.713L352.343 102.896C358.083 108.305 364.804 112.485 372.475 115.444L373.555 112.645ZM354.401 100.713L356.479 98.5497C351.43 93.6984 347.468 88.0068 344.587 81.4512L341.841 82.658L339.094 83.8648C342.284 91.1252 346.696 97.4703 352.322 102.876L354.401 100.713ZM341.841 82.658L344.602 81.4864C341.842 74.9805 340.445 67.8471 340.445 60.05H337.445H334.445C334.445 68.5809 335.978 76.5195 339.079 83.8297L341.841 82.658ZM337.445 60.05H340.445C340.445 52.2529 341.842 45.1195 344.602 38.6136L341.841 37.442L339.079 36.2703C335.978 43.5805 334.445 51.5191 334.445 60.05H337.445ZM341.841 37.442L344.587 38.6488C347.462 32.1059 351.468 26.4205 356.615 21.5704L354.558 19.387L352.5 17.2036C346.762 22.6108 342.29 28.9621 339.094 36.2352L341.841 37.442ZM354.558 19.387L356.615 21.5704C361.761 16.7216 367.809 12.9472 374.791 10.254L373.712 7.45499L372.632 4.65599C364.961 7.61478 358.24 11.7951 352.5 17.2036L354.558 19.387ZM373.712 7.45499L374.791 10.254C381.743 7.57269 389.328 6.216 397.576 6.216V3.216V0.216C388.658 0.216 380.334 1.6853 372.632 4.65598L373.712 7.45499ZM397.576 3.216V6.216C405.934 6.216 413.512 7.57445 420.346 10.2487L421.44 7.45499L422.533 4.66126C414.923 1.68354 406.592 0.216 397.576 0.216V3.216ZM421.44 7.45499L420.36 10.254C427.338 12.9454 433.325 16.7143 438.358 21.5503L440.437 19.387L442.515 17.2237C436.873 11.8023 430.195 7.61657 422.519 4.65599L421.44 7.45499ZM440.437 19.387L438.379 21.5704C443.526 26.4205 447.532 32.1059 450.407 38.6488L453.154 37.442L455.9 36.2352C452.705 28.9621 448.232 22.6108 442.494 17.2036L440.437 19.387ZM453.154 37.442L450.414 38.6643C453.26 45.0426 454.707 52.156 454.707 60.05H457.707H460.707C460.707 51.4067 459.118 43.448 455.893 36.2197L453.154 37.442ZM457.707 60.05H454.707C454.707 67.8325 453.262 75.0121 450.401 81.6233L453.154 82.815L455.907 84.0067C459.116 76.5926 460.707 68.5955 460.707 60.05H457.707ZM453.154 82.815L450.407 81.6082C447.532 88.1511 443.526 93.8365 438.379 98.6866L440.437 100.87L442.494 103.053C448.232 97.6462 452.705 91.2949 455.9 84.0218L453.154 82.815ZM440.437 100.87L438.381 98.6854C433.345 103.425 427.351 107.15 420.36 109.846L421.44 112.645L422.519 115.444C430.182 112.488 436.852 108.363 442.493 103.055L440.437 100.87ZM421.44 112.645L420.346 109.851C413.508 112.527 405.981 113.884 397.733 113.884V116.884V119.884C406.65 119.884 414.927 118.415 422.533 115.439L421.44 112.645ZM397.576 95.218V98.218C402.841 98.218 407.734 97.3205 412.216 95.4815L411.078 92.706L409.939 89.9305C406.258 91.4408 402.149 92.218 397.576 92.218V95.218ZM411.078 92.706L412.192 95.4914C416.75 93.6683 420.757 91.0371 424.189 87.6053L422.068 85.484L419.946 83.3627C417.098 86.2109 413.779 88.3944 409.964 89.9206L411.078 92.706ZM422.068 85.484L424.189 87.6053C427.633 84.161 430.265 80.0906 432.084 75.4276L429.29 74.337L426.495 73.2464C424.965 77.1661 422.782 80.527 419.946 83.3627L422.068 85.484ZM429.29 74.337L432.061 75.486C434.009 70.7872 434.959 65.6279 434.959 60.05H431.959H428.959C428.959 64.9387 428.129 69.3042 426.518 73.188L429.29 74.337ZM431.959 60.05H434.959C434.959 54.4721 434.009 49.3128 432.061 44.614L429.29 45.763L426.518 46.912C428.129 50.7958 428.959 55.1612 428.959 60.05H431.959ZM429.29 45.763L432.084 44.6724C430.265 40.0094 427.633 35.939 424.189 32.4947L422.068 34.616L419.946 36.7373C422.782 39.573 424.965 42.9339 426.495 46.8536L429.29 45.763ZM422.068 34.616L424.225 32.5309C420.885 29.0765 416.916 26.4352 412.349 24.6086L411.235 27.394L410.121 30.1794C413.927 31.7021 417.179 33.8755 419.911 36.7011L422.068 34.616ZM411.235 27.394L412.349 24.6086C407.777 22.7798 402.842 21.882 397.576 21.882V24.882V27.882C402.148 27.882 406.319 28.6589 410.121 30.1794L411.235 27.394ZM397.576 24.882V21.882C392.31 21.882 387.375 22.7798 382.803 24.6086L383.917 27.394L385.031 30.1794C388.832 28.6589 393.003 27.882 397.576 27.882V24.882ZM383.917 27.394L382.778 24.6185C378.326 26.445 374.382 29.0755 370.962 32.4947L373.084 34.616L375.205 36.7373C378.066 33.8764 381.343 31.6923 385.055 30.1695L383.917 27.394ZM373.084 34.616L370.962 32.4947C367.531 35.9258 364.856 39.9761 362.933 44.614L365.705 45.763L368.476 46.912C370.112 42.9672 372.356 39.5862 375.205 36.7373L373.084 34.616ZM365.705 45.763L362.91 44.6724C361.082 49.3553 360.193 54.4939 360.193 60.05H363.193H366.193C366.193 55.1395 366.978 50.7533 368.499 46.8536L365.705 45.763ZM363.193 60.05H360.193C360.193 65.5106 361.085 70.6384 362.901 75.405L365.705 74.337L368.508 73.269C366.975 69.2436 366.193 64.8467 366.193 60.05H363.193ZM365.705 74.337L362.933 75.486C364.848 80.1028 367.456 84.1415 370.77 87.5691L372.927 85.484L375.084 83.3989C372.326 80.5465 370.12 77.1539 368.476 73.188L365.705 74.337ZM372.927 85.484L370.805 87.6053C374.237 91.0371 378.245 93.6683 382.803 95.4914L383.917 92.706L385.031 89.9206C381.215 88.3944 377.896 86.2109 375.048 83.3627L372.927 85.484ZM383.917 92.706L382.803 95.4914C387.375 97.3202 392.31 98.218 397.576 98.218V95.218V92.218C393.003 92.218 388.832 91.4411 385.031 89.9206L383.917 92.706ZM539.621 115H536.621V118H539.621V115ZM539.621 5.09999V2.09999H536.621V5.09999H539.621ZM560.659 5.09999L562.98 3.19852L562.08 2.09999H560.659V5.09999ZM625.5 84.228V87.228H631.837L627.821 82.3265L625.5 84.228ZM615.295 84.228H612.295V87.228H615.295V84.228ZM615.295 5.09999V2.09999H612.295V5.09999H615.295ZM640.415 5.09999H643.415V2.09999H640.415V5.09999ZM640.415 115V118H643.415V115H640.415ZM619.534 115L617.216 116.904L618.116 118H619.534V115ZM554.536 35.872V32.872H548.19L552.218 37.7762L554.536 35.872ZM564.741 35.872H567.741V32.872H564.741V35.872ZM564.741 115V118H567.741V115H564.741ZM539.621 115H542.621V5.09999H539.621H536.621V115H539.621ZM539.621 5.09999V8.09999H560.659V5.09999V2.09999H539.621V5.09999ZM560.659 5.09999L558.339 7.00146L623.18 86.1295L625.5 84.228L627.821 82.3265L562.98 3.19852L560.659 5.09999ZM625.5 84.228V81.228H615.295V84.228V87.228H625.5V84.228ZM615.295 84.228H618.295V5.09999H615.295H612.295V84.228H615.295ZM615.295 5.09999V8.09999H640.415V5.09999V2.09999H615.295V5.09999ZM640.415 5.09999H637.415V115H640.415H643.415V5.09999H640.415ZM640.415 115V112H619.534V115V118H640.415V115ZM619.534 115L621.853 113.096L556.855 33.9678L554.536 35.872L552.218 37.7762L617.216 116.904L619.534 115ZM554.536 35.872V38.872H564.741V35.872V32.872H554.536V35.872ZM564.741 35.872H561.741V115H564.741H567.741V35.872H564.741ZM564.741 115V112H539.621V115V118H564.741V115ZM751.982 115H748.982V118H751.982V115ZM751.982 25.824H754.982V22.824H751.982V25.824ZM716.814 25.824H713.814V28.824H716.814V25.824ZM716.814 5.09999V2.09999H713.814V5.09999H716.814ZM812.584 5.09999H815.584V2.09999H812.584V5.09999ZM812.584 25.824V28.824H815.584V25.824H812.584ZM777.416 25.824V22.824H774.416V25.824H777.416ZM777.416 115V118H780.416V115H777.416ZM751.982 115H754.982V25.824H751.982H748.982V115H751.982ZM751.982 25.824V22.824H716.814V25.824V28.824H751.982V25.824ZM716.814 25.824H719.814V5.09999H716.814H713.814V25.824H716.814ZM716.814 5.09999V8.09999H812.584V5.09999V2.09999H716.814V5.09999ZM812.584 5.09999H809.584V25.824H812.584H815.584V5.09999H812.584ZM812.584 25.824V22.824H777.416V25.824V28.824H812.584V25.824ZM777.416 25.824H774.416V115H777.416H780.416V25.824H777.416ZM777.416 115V112H751.982V115V118H777.416V115ZM1019.72 49.374V46.374H1016.72V49.374H1019.72ZM1072.63 49.374H1075.63V46.374H1072.63V49.374ZM1072.63 69.156V72.156H1075.63V69.156H1072.63ZM1019.72 69.156H1016.72V72.156H1019.72V69.156ZM1021.61 94.59H1018.61V97.59H1021.61V94.59ZM1081.43 94.59H1084.43V91.59H1081.43V94.59ZM1081.43 115V118H1084.43V115H1081.43ZM996.332 115H993.332V118H996.332V115ZM996.332 5.09999V2.09999H993.332V5.09999H996.332ZM1079.39 5.09999H1082.39V2.09999H1079.39V5.09999ZM1079.39 25.51V28.51H1082.39V25.51H1079.39ZM1021.61 25.51V22.51H1018.61V25.51H1021.61ZM1019.72 49.374V52.374H1072.63V49.374V46.374H1019.72V49.374ZM1072.63 49.374H1069.63V69.156H1072.63H1075.63V49.374H1072.63ZM1072.63 69.156V66.156H1019.72V69.156V72.156H1072.63V69.156ZM1019.72 69.156H1022.72V49.374H1019.72H1016.72V69.156H1019.72ZM1021.61 94.59V97.59H1081.43V94.59V91.59H1021.61V94.59ZM1081.43 94.59H1078.43V115H1081.43H1084.43V94.59H1081.43ZM1081.43 115V112H996.332V115V118H1081.43V115ZM996.332 115H999.332V5.09999H996.332H993.332V115H996.332ZM996.332 5.09999V8.09999H1079.39V5.09999V2.09999H996.332V5.09999ZM1079.39 5.09999H1076.39V25.51H1079.39H1082.39V5.09999H1079.39ZM1079.39 25.51V22.51H1021.61V25.51V28.51H1079.39V25.51ZM1021.61 25.51H1018.61V94.59H1021.61H1024.61V25.51H1021.61ZM1164.46 115H1161.46V118H1164.46V115ZM1164.46 5.09999V2.09999H1161.46V5.09999H1164.46ZM1185.5 5.09999L1187.82 3.19852L1186.92 2.09999H1185.5V5.09999ZM1250.34 84.228V87.228H1256.68L1252.66 82.3265L1250.34 84.228ZM1240.14 84.228H1237.14V87.228H1240.14V84.228ZM1240.14 5.09999V2.09999H1237.14V5.09999H1240.14ZM1265.26 5.09999H1268.26V2.09999H1265.26V5.09999ZM1265.26 115V118H1268.26V115H1265.26ZM1244.38 115L1242.06 116.904L1242.96 118H1244.38V115ZM1179.38 35.872V32.872H1173.03L1177.06 37.7762L1179.38 35.872ZM1189.58 35.872H1192.58V32.872H1189.58V35.872ZM1189.58 115V118H1192.58V115H1189.58ZM1164.46 115H1167.46V5.09999H1164.46H1161.46V115H1164.46ZM1164.46 5.09999V8.09999H1185.5V5.09999V2.09999H1164.46V5.09999ZM1185.5 5.09999L1183.18 7.00146L1248.02 86.1295L1250.34 84.228L1252.66 82.3265L1187.82 3.19852L1185.5 5.09999ZM1250.34 84.228V81.228H1240.14V84.228V87.228H1250.34V84.228ZM1240.14 84.228H1243.14V5.09999H1240.14H1237.14V84.228H1240.14ZM1240.14 5.09999V8.09999H1265.26V5.09999V2.09999H1240.14V5.09999ZM1265.26 5.09999H1262.26V115H1265.26H1268.26V5.09999H1265.26ZM1265.26 115V112H1244.38V115V118H1265.26V115ZM1244.38 115L1246.69 113.096L1181.7 33.9678L1179.38 35.872L1177.06 37.7762L1242.06 116.904L1244.38 115ZM1179.38 35.872V38.872H1189.58V35.872V32.872H1179.38V35.872ZM1189.58 35.872H1186.58V115H1189.58H1192.58V35.872H1189.58ZM1189.58 115V112H1164.46V115V118H1189.58V115ZM1354.06 115H1351.06V118H1354.06V115ZM1354.06 5.09999V2.09999H1351.06V5.09999H1354.06ZM1435.54 12.008L1434.19 14.6851L1434.2 14.6913L1434.21 14.6974L1435.54 12.008ZM1456.89 31.005L1454.35 32.6008L1456.89 31.005ZM1456.89 89.095L1459.43 90.6908L1459.44 90.6836L1459.44 90.6763L1456.89 89.095ZM1435.54 108.249L1436.87 110.938L1436.88 110.932L1436.9 110.926L1435.54 108.249ZM1379.49 94.119H1376.49V97.119H1379.49V94.119ZM1421.73 90.037L1423.09 92.7097L1423.1 92.7046L1423.11 92.6995L1421.73 90.037ZM1434.29 78.105L1431.7 76.577L1431.69 76.5967L1431.68 76.6166L1434.29 78.105ZM1434.29 41.995L1431.68 43.4834L1431.7 43.5151L1431.72 43.5463L1434.29 41.995ZM1421.73 30.22L1420.32 32.8714L1420.35 32.8877L1420.38 32.9033L1421.73 30.22ZM1379.49 25.981V22.981H1376.49V25.981H1379.49ZM1354.06 115H1357.06V5.09999H1354.06H1351.06V115H1354.06ZM1354.06 5.09999V8.09999H1403.98V5.09999V2.09999H1354.06V5.09999ZM1403.98 5.09999V8.09999C1415.53 8.09999 1425.57 10.3252 1434.19 14.6851L1435.54 12.008L1436.9 9.3309C1427.3 4.48008 1416.31 2.09999 1403.98 2.09999V5.09999ZM1435.54 12.008L1434.21 14.6974C1442.85 18.9662 1449.54 24.9319 1454.35 32.6008L1456.89 31.005L1459.43 29.4091C1453.99 20.7501 1446.45 14.0511 1436.87 9.31856L1435.54 12.008ZM1456.89 31.005L1454.35 32.6008C1459.14 40.2137 1461.59 49.3223 1461.59 60.05H1464.59H1467.59C1467.59 48.379 1464.91 38.1243 1459.43 29.4091L1456.89 31.005ZM1464.59 60.05H1461.59C1461.59 70.6661 1459.14 79.7837 1454.34 87.5137L1456.89 89.095L1459.44 90.6763C1464.91 81.8689 1467.59 71.6232 1467.59 60.05H1464.59ZM1456.89 89.095L1454.35 87.4992C1449.53 95.1744 1442.84 101.198 1434.19 105.572L1435.54 108.249L1436.9 110.926C1446.46 106.09 1454 99.3436 1459.43 90.6908L1456.89 89.095ZM1435.54 108.249L1434.21 105.56C1425.59 109.823 1415.54 112 1403.98 112V115V118C1416.3 118 1427.29 115.676 1436.87 110.938L1435.54 108.249ZM1403.98 115V112H1354.06V115V118H1403.98V115ZM1379.49 94.119V97.119H1402.73V94.119V91.119H1379.49V94.119ZM1402.73 94.119V97.119C1410.43 97.119 1417.24 95.6889 1423.09 92.7097L1421.73 90.037L1420.36 87.3643C1415.53 89.8278 1409.69 91.119 1402.73 91.119V94.119ZM1421.73 90.037L1423.11 92.6995C1429.04 89.6184 1433.66 85.2426 1436.89 79.5934L1434.29 78.105L1431.68 76.6166C1429.05 81.2248 1425.3 84.8036 1420.34 87.3745L1421.73 90.037ZM1434.29 78.105L1436.87 79.633C1440.22 73.9723 1441.84 67.4089 1441.84 60.05H1438.84H1435.84C1435.84 66.5071 1434.42 71.9804 1431.7 76.577L1434.29 78.105ZM1438.84 60.05H1441.84C1441.84 52.5976 1440.22 46.0196 1436.85 40.4436L1434.29 41.995L1431.72 43.5463C1434.42 48.0183 1435.84 53.477 1435.84 60.05H1438.84ZM1434.29 41.995L1436.89 40.5066C1433.66 34.8475 1429.02 30.5145 1423.07 27.5367L1421.73 30.22L1420.38 32.9033C1425.31 35.3682 1429.05 38.8852 1431.68 43.4834L1434.29 41.995ZM1421.73 30.22L1423.13 27.5686C1417.28 24.4698 1410.44 22.981 1402.73 22.981V25.981V28.981C1409.67 28.981 1415.5 30.3182 1420.32 32.8714L1421.73 30.22ZM1402.73 25.981V22.981H1379.49V25.981V28.981H1402.73V25.981ZM1379.49 25.981H1376.49V94.119H1379.49H1382.49V25.981H1379.49Z" fill="#C85321" mask="url(#path-1-outside-1_2797_715)"/>
</svg>
