<svg width="264" height="68" viewBox="0 0 264 68" fill="none" xmlns="http://www.w3.org/2000/svg">
<path d="M11.232 67.464C11.008 67.52 10.756 67.548 10.476 67.548C10.196 67.548 9.916 67.548 9.636 67.548C7.732 67.548 5.912 67.212 4.176 66.54C2.44 65.868 1.292 64.58 0.732 62.676C0.564 62.172 0.48 61.612 0.48 60.996C0.48 59.484 0.956 58.112 1.908 56.88C2.132 56.656 2.356 56.516 2.58 56.46C2.748 56.348 2.832 56.46 2.832 56.796C3 59.54 3.952 61.5 5.688 62.676C7.48 63.908 9.58 64.524 11.988 64.524C14.284 64.524 16.636 64.048 19.044 63.096C21.508 62.144 23.692 60.856 25.596 59.232C28.06 57.048 30.328 54.528 32.4 51.672C34.528 48.816 36.544 45.932 38.448 43.02C39.12 41.9 39.82 40.78 40.548 39.66C41.276 38.54 42.004 37.448 42.732 36.384H21.816C21.704 36.384 21.648 36.328 21.648 36.216C21.648 35.936 21.844 35.6 22.236 35.208C22.684 34.76 23.048 34.536 23.328 34.536H43.908C46.372 30.896 48.92 27.34 51.552 23.868C54.184 20.34 56.844 17.12 59.532 14.208C62.836 10.736 66.28 7.964 69.864 5.89199C73.504 3.764 76.78 2.616 79.692 2.448C81.26 2.336 82.66 2.42 83.892 2.7C85.18 2.924 86.216 3.372 87 4.044C87.728 4.604 88.26 5.304 88.596 6.144C88.932 6.984 89.1 7.852 89.1 8.748C89.1 8.972 89.072 9.196 89.016 9.42C89.016 9.644 88.988 9.896 88.932 10.176C88.764 11.072 88.428 11.8 87.924 12.36C87.7 12.584 87.476 12.696 87.252 12.696C86.86 12.696 86.832 12.444 87.168 11.94C87.672 11.268 87.924 10.456 87.924 9.504C87.924 9 87.84 8.552 87.672 8.16C87.28 7.096 86.524 6.312 85.404 5.808C84.34 5.248 83.08 4.968 81.624 4.968C78.488 4.968 75.184 6.088 71.712 8.328C69.192 9.952 66.616 12.136 63.984 14.88C61.408 17.568 58.804 20.592 56.172 23.952C53.596 27.312 51.02 30.84 48.444 34.536H60.792C61.296 33.528 61.8 32.52 62.304 31.512C62.864 30.504 63.424 29.496 63.984 28.488C66.056 24.736 68.184 21.152 70.368 17.736C72.608 14.264 74.596 11.128 76.332 8.328C76.5 8.048 76.668 7.908 76.836 7.908C77.06 7.908 77.2 8.02 77.256 8.244C77.312 8.468 77.256 8.664 77.088 8.832C74.512 12.752 72.244 16.896 70.284 21.264C68.38 25.632 66.644 30.056 65.076 34.536H69.192C69.304 34.536 69.36 34.592 69.36 34.704C69.36 34.928 69.136 35.264 68.688 35.712C68.296 36.16 67.932 36.384 67.596 36.384H64.404C63.9 37.84 63.284 39.8 62.556 42.264C61.884 44.672 61.268 47.192 60.708 49.824C60.204 52.456 59.952 54.864 59.952 57.048C59.952 59.064 60.26 60.632 60.876 61.752C61.548 62.872 62.584 63.432 63.984 63.432C64.152 63.432 64.32 63.432 64.488 63.432C64.656 63.432 64.824 63.404 64.992 63.348C65.944 63.18 66.896 62.648 67.848 61.752C68.856 60.856 69.836 59.792 70.788 58.56C72.132 56.824 73.364 54.976 74.484 53.016C75.604 51.056 76.444 49.544 77.004 48.48C77.284 48.032 77.508 47.808 77.676 47.808C77.9 47.808 78.012 48.004 78.012 48.396C78.012 48.62 77.928 48.9 77.76 49.236C76.976 50.636 75.968 52.4 74.736 54.528C73.56 56.6 72.244 58.532 70.788 60.324C69.724 61.556 68.604 62.62 67.428 63.516C66.252 64.412 65.02 64.972 63.732 65.196C63.396 65.252 63.06 65.28 62.724 65.28C62.444 65.336 62.136 65.364 61.8 65.364C60.176 65.364 58.748 64.888 57.516 63.936C56.284 63.04 55.444 61.5 54.996 59.316C54.884 58.7 54.8 58.056 54.744 57.384C54.688 56.712 54.66 56.068 54.66 55.452C54.66 52.204 55.22 48.928 56.34 45.624C57.516 42.32 58.72 39.24 59.952 36.384H47.016C46.12 37.616 45.252 38.904 44.412 40.248C43.572 41.536 42.704 42.824 41.808 44.112C40.184 46.464 38.224 48.956 35.928 51.588C33.688 54.164 31.224 56.628 28.536 58.98C25.848 61.276 23.02 63.208 20.052 64.776C17.14 66.344 14.2 67.24 11.232 67.464ZM85.0378 62.172C81.7898 62.172 79.4938 61.332 78.1498 59.652C77.4778 58.924 77.0018 58.056 76.7218 57.048C76.4418 56.04 76.3018 55.004 76.3018 53.94C76.3018 52.596 76.4698 51.252 76.8058 49.908C77.1418 48.508 77.5618 47.22 78.0658 46.044C78.8498 44.196 79.8858 42.348 81.1738 40.5C82.4618 38.596 84.0018 37 85.7938 35.712C87.6418 34.424 89.6578 33.78 91.8418 33.78C93.2978 33.78 94.4458 34.144 95.2858 34.872C96.1258 35.6 96.5458 36.72 96.5458 38.232C96.5458 39.968 96.0138 41.732 94.9498 43.524C93.8858 45.26 92.5418 46.716 90.9178 47.892C89.2938 49.068 87.6138 49.656 85.8778 49.656C84.3098 49.656 82.9378 49.096 81.7618 47.976C81.4258 48.872 81.1458 49.88 80.9218 51C80.6978 52.064 80.5858 53.156 80.5858 54.276C80.5858 56.012 80.9218 57.524 81.5938 58.812C82.3218 60.1 83.6098 60.744 85.4578 60.744C86.8018 60.744 88.0898 60.408 89.3218 59.736C90.6098 59.008 91.7578 58.14 92.7658 57.132C93.8858 55.956 94.9498 54.696 95.9578 53.352C96.9658 52.008 97.9458 50.44 98.8978 48.648C99.0098 48.48 99.0938 48.396 99.1498 48.396C99.3738 48.396 99.4858 48.648 99.4858 49.152C99.4858 49.488 99.3738 49.852 99.1498 50.244C98.3098 51.756 97.3298 53.296 96.2098 54.864C95.0898 56.376 93.9418 57.692 92.7658 58.812C91.7018 59.82 90.5538 60.632 89.3218 61.248C88.0898 61.864 86.6618 62.172 85.0378 62.172ZM82.1818 46.716C82.5738 47.276 83.0218 47.696 83.5258 47.976C84.0858 48.2 84.6458 48.312 85.2058 48.312C86.5498 48.312 87.9498 47.808 89.4058 46.8C90.8618 45.736 92.0378 44.504 92.9338 43.104C93.3258 42.488 93.6618 41.676 93.9418 40.668C94.2778 39.66 94.4458 38.708 94.4458 37.812C94.4458 37.028 94.2778 36.356 93.9418 35.796C93.6618 35.18 93.0738 34.872 92.1778 34.872C91.1698 34.872 89.9658 35.488 88.5658 36.72C87.2218 37.952 85.9338 39.548 84.7018 41.508C84.3098 42.18 83.8618 42.964 83.3578 43.86C82.9098 44.756 82.5178 45.708 82.1818 46.716ZM101.226 62.172C100.05 62.172 98.9582 61.948 97.9502 61.5C96.9982 60.996 96.2142 60.156 95.5982 58.98C95.1502 57.972 94.9262 56.88 94.9262 55.704C94.9262 54.472 95.1502 53.324 95.5982 52.26C96.0462 51.308 96.5502 50.468 97.1102 49.74C97.6702 49.012 98.2862 48.592 98.9582 48.48C99.4622 47.36 100.218 45.876 101.226 44.028C102.29 42.18 103.466 40.332 104.754 38.484C106.098 36.636 107.358 35.152 108.534 34.032C108.814 33.752 109.29 33.304 109.962 32.688C110.69 32.016 111.502 31.372 112.398 30.756C113.35 30.14 114.218 29.776 115.002 29.664C115.17 29.608 115.394 29.58 115.674 29.58C116.346 29.58 116.85 29.748 117.186 30.084C117.522 30.42 117.69 30.812 117.69 31.26C117.69 31.708 117.522 32.156 117.186 32.604C116.85 33.052 116.318 33.416 115.59 33.696C115.31 33.752 114.89 33.836 114.33 33.948C113.826 34.06 113.07 34.116 112.062 34.116C111.67 34.676 111.474 35.46 111.474 36.468C111.474 37.588 111.642 38.848 111.978 40.248C112.37 41.648 112.734 43.02 113.07 44.364C113.462 45.652 113.658 46.744 113.658 47.64C113.77 49.712 113.434 51.812 112.65 53.94C111.922 56.012 110.746 57.776 109.122 59.232L107.946 60.072C108.114 60.128 108.282 60.184 108.45 60.24C108.618 60.24 108.786 60.24 108.954 60.24C109.906 60.24 110.97 59.96 112.146 59.4C113.322 58.784 114.358 58.028 115.254 57.132C116.598 55.844 117.746 54.472 118.698 53.016C119.706 51.56 120.63 50.048 121.47 48.48C121.526 48.256 121.666 48.144 121.89 48.144C122.17 48.144 122.31 48.368 122.31 48.816C122.31 49.04 122.226 49.292 122.058 49.572C121.218 51.14 120.182 52.792 118.95 54.528C117.774 56.208 116.542 57.636 115.254 58.812C114.246 59.708 113.154 60.38 111.978 60.828C110.858 61.22 109.906 61.416 109.122 61.416C108.562 61.416 108.114 61.36 107.778 61.248C107.442 61.136 107.134 60.968 106.854 60.744C106.07 61.136 105.174 61.472 104.166 61.752C103.214 62.032 102.234 62.172 101.226 62.172ZM104.418 59.988C105.538 59.204 106.406 58.196 107.022 56.964C107.694 55.732 108.198 54.416 108.534 53.016C108.982 51.336 109.234 49.6 109.29 47.808C109.402 46.016 109.458 44.392 109.458 42.936V39.996C109.458 38.82 109.598 37.616 109.878 36.384C110.214 35.152 110.55 34.396 110.886 34.116C110.046 34.452 109.122 35.208 108.114 36.384C107.106 37.504 106.098 38.848 105.09 40.416C104.082 41.928 103.158 43.412 102.318 44.868C101.534 46.324 100.918 47.528 100.47 48.48C101.534 48.424 102.262 48.732 102.654 49.404C103.046 50.02 103.158 50.468 102.99 50.748C102.542 50.636 102.234 50.58 102.066 50.58C101.226 50.58 100.442 50.888 99.7142 51.504C98.9862 52.064 98.3702 52.904 97.8662 54.024C97.3622 55.088 97.1102 56.124 97.1102 57.132C97.1102 58.476 97.5022 59.456 98.2862 60.072C99.0702 60.688 99.9942 60.996 101.058 60.996C102.29 60.996 103.41 60.66 104.418 59.988ZM124.459 62.088C123.227 62.088 122.079 61.696 121.015 60.912C119.951 60.072 119.419 58.728 119.419 56.88C119.419 54.92 119.895 52.764 120.847 50.412C121.799 48.06 122.695 45.96 123.535 44.112C123.983 43.216 124.571 42.012 125.299 40.5C126.083 38.932 126.923 37.392 127.819 35.88H123.871C123.703 35.88 123.619 35.74 123.619 35.46C123.619 35.236 123.703 35.012 123.871 34.788C124.039 34.508 124.235 34.368 124.459 34.368C126.027 34.368 127.203 34.228 127.987 33.948C128.771 33.668 129.443 33.276 130.003 32.772C130.899 31.988 131.767 30.98 132.607 29.748C133.503 28.516 134.371 27.452 135.211 26.556C135.827 25.772 136.583 25.184 137.479 24.792C138.431 24.4 139.047 24.26 139.327 24.372C139.047 24.764 138.599 25.436 137.983 26.388C137.367 27.34 136.723 28.376 136.051 29.496C135.379 30.616 134.763 31.652 134.203 32.604C133.643 33.556 133.279 34.2 133.111 34.536H143.527C144.983 31.344 146.635 27.984 148.483 24.456C150.387 20.928 152.487 17.568 154.783 14.376C157.079 11.128 159.571 8.3 162.259 5.89199C164.947 3.484 167.803 1.804 170.827 0.851995C171.163 0.795995 171.499 0.739996 171.835 0.683997C172.171 0.627998 172.507 0.599998 172.843 0.599998C173.683 0.599998 174.411 0.795997 175.027 1.188C175.811 1.692 176.203 2.588 176.203 3.876C176.203 4.772 175.951 5.864 175.447 7.152C174.551 9.392 173.067 11.8 170.995 14.376C168.979 16.952 166.599 19.584 163.855 22.272C160.439 25.576 157.163 28.488 154.027 31.008C150.891 33.528 148.371 35.516 146.467 36.972C145.347 39.38 144.423 41.48 143.695 43.272C142.967 45.008 142.491 46.268 142.267 47.052C143.163 45.708 144.171 44.252 145.291 42.684C146.467 41.06 147.503 39.8 148.399 38.904C149.687 37.616 150.975 36.524 152.263 35.628C153.551 34.732 154.811 34.228 156.043 34.116C157.947 33.948 159.319 34.2 160.159 34.872C160.999 35.488 161.419 36.412 161.419 37.644C161.419 38.876 161.083 40.248 160.411 41.76C159.683 43.496 158.815 45.232 157.807 46.968C156.799 48.704 155.875 50.384 155.035 52.008C154.811 52.456 154.391 53.324 153.775 54.612C153.215 55.844 152.851 57.02 152.683 58.14C152.683 58.196 152.655 58.28 152.599 58.392C152.599 58.504 152.599 58.616 152.599 58.728C152.599 59.344 152.767 59.82 153.103 60.156C153.439 60.436 153.831 60.576 154.279 60.576C155.231 60.576 156.127 60.268 156.967 59.652C157.807 59.036 158.535 58.364 159.151 57.636C160.439 56.236 161.615 54.696 162.679 53.016C163.743 51.336 164.807 49.544 165.871 47.64C166.039 47.416 166.207 47.304 166.375 47.304C166.599 47.304 166.711 47.472 166.711 47.808C166.711 48.088 166.655 48.312 166.543 48.48C165.535 50.328 164.443 52.176 163.267 54.024C162.147 55.872 160.775 57.608 159.151 59.232C158.423 59.96 157.583 60.632 156.631 61.248C155.679 61.808 154.615 62.088 153.439 62.088C151.535 62.088 150.191 61.556 149.407 60.492C148.679 59.372 148.315 58.14 148.315 56.796C148.315 55.732 148.511 54.668 148.903 53.604C149.855 51.14 151.171 48.788 152.851 46.548C154.531 44.308 155.931 41.984 157.051 39.576C157.443 38.848 157.639 38.176 157.639 37.56C157.639 36.888 157.443 36.384 157.051 36.048C156.659 35.712 156.239 35.544 155.791 35.544C154.727 35.544 153.551 36.02 152.263 36.972C151.031 37.868 149.827 39.016 148.651 40.416C147.587 41.648 146.495 43.076 145.375 44.7C144.255 46.268 143.191 47.948 142.183 49.74C141.231 51.364 140.251 53.072 139.243 54.864C138.235 56.6 137.423 58.084 136.807 59.316C136.359 60.268 135.883 60.884 135.379 61.164C134.875 61.444 134.399 61.584 133.951 61.584C133.727 61.584 133.503 61.556 133.279 61.5C133.055 61.5 132.859 61.5 132.691 61.5C133.195 59.596 134.119 56.992 135.463 53.688C136.863 50.328 138.515 46.352 140.419 41.76C140.811 40.864 141.203 39.94 141.595 38.988C141.987 37.98 142.435 36.944 142.939 35.88H132.355C131.347 37.616 130.143 39.884 128.743 42.684C127.399 45.428 126.195 48.088 125.131 50.664C125.019 51 124.795 51.616 124.459 52.512C124.123 53.352 123.815 54.304 123.535 55.368C123.311 56.376 123.199 57.328 123.199 58.224C123.199 58.952 123.339 59.568 123.619 60.072C123.899 60.576 124.403 60.828 125.131 60.828C125.971 60.828 126.811 60.548 127.651 59.988C128.491 59.372 129.135 58.7 129.583 57.972C129.751 57.748 129.863 57.636 129.919 57.636C130.087 57.636 130.171 57.804 130.171 58.14C130.171 58.644 129.975 59.092 129.583 59.484C128.967 60.156 128.211 60.772 127.315 61.332C126.475 61.836 125.523 62.088 124.459 62.088ZM147.223 35.292C150.583 32.828 153.607 30.336 156.295 27.816C158.983 25.296 161.699 22.58 164.443 19.668C165.227 18.828 166.235 17.708 167.467 16.308C168.755 14.908 170.015 13.396 171.247 11.772C172.479 10.148 173.403 8.58 174.019 7.068C174.579 5.78 174.859 4.688 174.859 3.792C174.859 2.28 174.159 1.524 172.759 1.524C172.031 1.524 171.219 1.748 170.323 2.196C169.427 2.644 168.587 3.26 167.803 4.044C165.115 6.564 162.483 9.644 159.907 13.284C157.387 16.868 155.035 20.592 152.851 24.456C150.723 28.32 148.847 31.932 147.223 35.292ZM173.468 62.172C170.22 62.172 167.924 61.332 166.58 59.652C165.908 58.924 165.432 58.056 165.152 57.048C164.872 56.04 164.731 55.004 164.731 53.94C164.731 52.596 164.9 51.252 165.236 49.908C165.572 48.508 165.992 47.22 166.496 46.044C167.28 44.196 168.316 42.348 169.604 40.5C170.892 38.596 172.432 37 174.224 35.712C176.072 34.424 178.088 33.78 180.272 33.78C181.728 33.78 182.876 34.144 183.716 34.872C184.556 35.6 184.976 36.72 184.976 38.232C184.976 39.968 184.444 41.732 183.38 43.524C182.316 45.26 180.972 46.716 179.348 47.892C177.724 49.068 176.044 49.656 174.308 49.656C172.74 49.656 171.368 49.096 170.192 47.976C169.856 48.872 169.576 49.88 169.352 51C169.128 52.064 169.016 53.156 169.016 54.276C169.016 56.012 169.352 57.524 170.024 58.812C170.752 60.1 172.04 60.744 173.888 60.744C175.232 60.744 176.52 60.408 177.752 59.736C179.04 59.008 180.188 58.14 181.196 57.132C182.316 55.956 183.38 54.696 184.388 53.352C185.396 52.008 186.376 50.44 187.328 48.648C187.44 48.48 187.524 48.396 187.58 48.396C187.804 48.396 187.916 48.648 187.916 49.152C187.916 49.488 187.804 49.852 187.58 50.244C186.74 51.756 185.76 53.296 184.64 54.864C183.52 56.376 182.372 57.692 181.196 58.812C180.132 59.82 178.984 60.632 177.752 61.248C176.52 61.864 175.092 62.172 173.468 62.172ZM170.612 46.716C171.004 47.276 171.452 47.696 171.956 47.976C172.516 48.2 173.076 48.312 173.636 48.312C174.98 48.312 176.38 47.808 177.836 46.8C179.292 45.736 180.468 44.504 181.363 43.104C181.756 42.488 182.092 41.676 182.372 40.668C182.708 39.66 182.876 38.708 182.876 37.812C182.876 37.028 182.708 36.356 182.372 35.796C182.092 35.18 181.504 34.872 180.608 34.872C179.6 34.872 178.396 35.488 176.996 36.72C175.652 37.952 174.364 39.548 173.132 41.508C172.74 42.18 172.292 42.964 171.788 43.86C171.34 44.756 170.948 45.708 170.612 46.716ZM190.748 62.088C189.348 62.088 188.088 61.696 186.968 60.912C185.904 60.072 185.372 58.728 185.372 56.88C185.372 54.92 185.848 52.764 186.8 50.412C187.752 48.06 188.648 45.96 189.488 44.112C189.936 43.216 190.524 42.012 191.252 40.5C192.036 38.932 192.876 37.392 193.772 35.88H189.824C189.656 35.88 189.572 35.74 189.572 35.46C189.572 35.236 189.656 35.012 189.824 34.788C189.992 34.508 190.188 34.368 190.412 34.368C191.98 34.368 193.156 34.228 193.94 33.948C194.724 33.668 195.396 33.276 195.956 32.772C196.852 31.988 197.72 30.98 198.56 29.748C199.456 28.516 200.324 27.452 201.164 26.556C201.78 25.772 202.536 25.184 203.432 24.792C204.384 24.4 205 24.26 205.28 24.372C205 24.764 204.552 25.436 203.936 26.388C203.32 27.34 202.676 28.376 202.004 29.496C201.332 30.616 200.716 31.652 200.156 32.604C199.596 33.556 199.232 34.2 199.064 34.536H204.608C204.776 34.536 204.86 34.592 204.86 34.704C204.86 34.928 204.72 35.18 204.44 35.46C204.216 35.74 203.992 35.88 203.768 35.88H198.308C197.3 37.616 196.096 39.884 194.696 42.684C193.352 45.428 192.148 48.088 191.084 50.664C190.86 51.168 190.468 52.176 189.908 53.688C189.404 55.2 189.152 56.6 189.152 57.888C189.152 58.728 189.32 59.428 189.656 59.988C190.048 60.548 190.692 60.828 191.588 60.828C192.54 60.828 193.576 60.492 194.696 59.82C195.816 59.092 196.684 58.364 197.3 57.636C198.588 56.236 199.764 54.696 200.828 53.016C201.892 51.336 202.956 49.544 204.02 47.64C204.188 47.416 204.356 47.304 204.524 47.304C204.748 47.304 204.86 47.472 204.86 47.808C204.86 48.088 204.804 48.312 204.692 48.48C203.684 50.328 202.592 52.176 201.416 54.024C200.296 55.872 198.924 57.608 197.3 59.232C196.572 59.96 195.592 60.632 194.36 61.248C193.128 61.808 191.924 62.088 190.748 62.088ZM205.9 62.004C204.332 62.004 203.184 61.5 202.456 60.492C201.728 59.428 201.364 58.14 201.364 56.628C201.364 56.18 201.392 55.732 201.448 55.284C201.56 54.78 201.672 54.276 201.784 53.772C202.4 51.532 203.352 49.04 204.64 46.296C205.984 43.496 207.272 41.004 208.504 38.82C209.232 37.588 209.904 36.72 210.52 36.216C211.136 35.656 211.808 35.264 212.536 35.04C213.264 34.76 214.132 34.452 215.14 34.116C215.42 34.004 215.7 33.92 215.98 33.864C216.26 33.808 216.568 33.752 216.904 33.696C215.784 34.816 214.636 36.16 213.46 37.728C212.34 39.296 211.108 41.452 209.764 44.196C209.036 45.652 208.308 47.276 207.58 49.068C206.908 50.86 206.32 52.54 205.816 54.108C205.312 55.676 205.032 56.908 204.976 57.804C204.92 58.868 205.06 59.624 205.396 60.072C205.732 60.52 206.18 60.744 206.74 60.744C207.692 60.744 208.588 60.408 209.428 59.736C210.324 59.064 211.108 58.364 211.78 57.636C213.012 56.236 214.16 54.696 215.224 53.016C216.344 51.336 217.436 49.544 218.5 47.64C218.668 47.416 218.808 47.304 218.92 47.304C219.144 47.304 219.256 47.472 219.256 47.808C219.256 48.088 219.2 48.312 219.088 48.48C218.08 50.328 217.016 52.176 215.896 54.024C214.776 55.872 213.404 57.608 211.78 59.232C211.052 59.96 210.184 60.604 209.176 61.164C208.224 61.724 207.132 62.004 205.9 62.004ZM216.148 28.992C215.532 28.992 215 28.768 214.552 28.32C214.16 27.872 213.964 27.34 213.964 26.724C213.964 25.94 214.272 25.24 214.888 24.624C215.56 24.008 216.288 23.644 217.072 23.532C217.688 23.532 218.192 23.756 218.584 24.204C219.032 24.596 219.256 25.128 219.256 25.8C219.256 26.528 218.948 27.256 218.332 27.984C217.716 28.656 216.988 28.992 216.148 28.992ZM225.462 62.424C222.55 62.424 220.478 61.556 219.246 59.82C218.014 58.028 217.398 55.928 217.398 53.52C217.398 50.888 217.958 48.228 219.078 45.54C219.918 43.524 221.01 41.648 222.354 39.912C223.698 38.12 225.294 36.664 227.142 35.544C229.046 34.424 231.118 33.864 233.358 33.864C235.038 33.864 236.326 34.256 237.222 35.04C238.174 35.824 238.65 36.916 238.65 38.316C238.65 38.764 238.594 39.24 238.482 39.744C238.426 40.248 238.258 40.808 237.978 41.424C237.586 42.432 237.082 43.328 236.466 44.112C235.85 44.896 235.15 45.512 234.366 45.96C233.974 46.184 233.526 46.296 233.022 46.296C232.63 46.296 232.266 46.184 231.93 45.96C231.594 45.736 231.426 45.372 231.426 44.868C231.426 43.972 231.902 43.02 232.854 42.012C233.862 40.948 235.15 40.388 236.718 40.332C236.998 39.604 237.138 38.96 237.138 38.4C237.138 37.504 236.858 36.748 236.298 36.132C235.738 35.46 234.87 35.124 233.694 35.124C232.238 35.124 230.81 35.684 229.41 36.804C228.01 37.868 226.75 39.296 225.63 41.088C224.566 42.824 223.698 44.672 223.026 46.632C222.69 47.528 222.382 48.676 222.102 50.076C221.822 51.42 221.682 52.764 221.682 54.108C221.682 55.844 222.046 57.412 222.774 58.812C223.558 60.156 225.014 60.828 227.142 60.828C228.654 60.828 230.082 60.408 231.426 59.568C232.77 58.672 233.974 57.58 235.038 56.292C236.158 55.004 237.138 53.688 237.978 52.344C238.874 50.944 239.602 49.712 240.162 48.648C240.218 48.424 240.358 48.312 240.582 48.312C240.862 48.312 241.002 48.536 241.002 48.984C241.002 49.208 240.918 49.46 240.75 49.74C239.574 51.812 238.314 53.828 236.97 55.788C235.626 57.692 234.03 59.288 232.182 60.576C230.334 61.808 228.094 62.424 225.462 62.424ZM242.484 62.172C241.308 62.172 240.216 61.948 239.208 61.5C238.256 60.996 237.472 60.156 236.856 58.98C236.408 57.972 236.184 56.88 236.184 55.704C236.184 54.472 236.408 53.324 236.856 52.26C237.304 51.308 237.808 50.468 238.368 49.74C238.928 49.012 239.544 48.592 240.216 48.48C240.72 47.36 241.476 45.876 242.484 44.028C243.548 42.18 244.724 40.332 246.012 38.484C247.356 36.636 248.616 35.152 249.792 34.032C250.072 33.752 250.548 33.304 251.22 32.688C251.948 32.016 252.76 31.372 253.656 30.756C254.608 30.14 255.476 29.776 256.26 29.664C256.428 29.608 256.652 29.58 256.932 29.58C257.604 29.58 258.108 29.748 258.444 30.084C258.78 30.42 258.948 30.812 258.948 31.26C258.948 31.708 258.78 32.156 258.444 32.604C258.108 33.052 257.576 33.416 256.848 33.696C256.568 33.752 256.148 33.836 255.588 33.948C255.084 34.06 254.328 34.116 253.32 34.116C252.928 34.676 252.732 35.46 252.732 36.468C252.732 37.588 252.9 38.848 253.236 40.248C253.628 41.648 253.992 43.02 254.328 44.364C254.72 45.652 254.916 46.744 254.916 47.64C255.028 49.712 254.692 51.812 253.908 53.94C253.18 56.012 252.004 57.776 250.38 59.232L249.204 60.072C249.372 60.128 249.54 60.184 249.708 60.24C249.876 60.24 250.044 60.24 250.212 60.24C251.164 60.24 252.228 59.96 253.404 59.4C254.58 58.784 255.616 58.028 256.512 57.132C257.856 55.844 259.004 54.472 259.956 53.016C260.964 51.56 261.888 50.048 262.728 48.48C262.784 48.256 262.924 48.144 263.148 48.144C263.428 48.144 263.568 48.368 263.568 48.816C263.568 49.04 263.484 49.292 263.316 49.572C262.476 51.14 261.44 52.792 260.208 54.528C259.032 56.208 257.8 57.636 256.512 58.812C255.504 59.708 254.412 60.38 253.236 60.828C252.116 61.22 251.164 61.416 250.38 61.416C249.82 61.416 249.372 61.36 249.036 61.248C248.7 61.136 248.392 60.968 248.112 60.744C247.328 61.136 246.432 61.472 245.424 61.752C244.472 62.032 243.492 62.172 242.484 62.172ZM245.676 59.988C246.796 59.204 247.664 58.196 248.28 56.964C248.952 55.732 249.456 54.416 249.792 53.016C250.24 51.336 250.492 49.6 250.548 47.808C250.66 46.016 250.716 44.392 250.716 42.936V39.996C250.716 38.82 250.856 37.616 251.136 36.384C251.472 35.152 251.808 34.396 252.144 34.116C251.304 34.452 250.38 35.208 249.372 36.384C248.364 37.504 247.356 38.848 246.348 40.416C245.34 41.928 244.416 43.412 243.576 44.868C242.792 46.324 242.176 47.528 241.728 48.48C242.792 48.424 243.52 48.732 243.912 49.404C244.304 50.02 244.416 50.468 244.248 50.748C243.8 50.636 243.492 50.58 243.324 50.58C242.484 50.58 241.7 50.888 240.972 51.504C240.244 52.064 239.628 52.904 239.124 54.024C238.62 55.088 238.368 56.124 238.368 57.132C238.368 58.476 238.76 59.456 239.544 60.072C240.328 60.688 241.252 60.996 242.316 60.996C243.548 60.996 244.668 60.66 245.676 59.988Z" fill="white"/>
</svg>
