<svg width="167" height="35" viewBox="0 0 167 35" fill="none" xmlns="http://www.w3.org/2000/svg">
<path d="M16.644 34.9126C13.388 34.9126 10.5573 34.2966 8.152 33.0646C5.74667 31.8032 3.884 29.9992 2.564 27.6526C1.27333 25.3059 0.628 22.4752 0.628 19.1605C0.628 15.8459 1.25867 13.0152 2.52 10.6685C3.81067 8.32188 5.6 6.53255 7.888 5.30055C10.176 4.06855 12.816 3.45255 15.808 3.45255C18.5067 3.45255 20.736 3.93655 22.496 4.90455C24.2853 5.84322 25.62 7.17788 26.5 8.90855C27.4093 10.6099 27.864 12.5752 27.864 14.8045H26.016C25.8987 13.7486 25.5613 12.7072 25.004 11.6805C24.4467 10.6539 23.6253 9.80322 22.54 9.12855C21.484 8.45388 20.1053 8.11655 18.404 8.11655C16.556 8.11655 14.9867 8.55655 13.696 9.43655C12.4053 10.2872 11.408 11.4899 10.704 13.0445C10.0293 14.5699 9.692 16.3739 9.692 18.4565C9.692 20.5392 10.044 22.3579 10.748 23.9126C11.4813 25.4672 12.5227 26.6699 13.872 27.5206C15.2213 28.3419 16.7907 28.7526 18.58 28.7526C20.2227 28.7526 21.5867 28.4446 22.672 27.8286C23.7573 27.2126 24.5933 26.3912 25.18 25.3646C25.796 24.3086 26.192 23.1352 26.368 21.8446H31.076C30.988 24.1619 30.4307 26.3179 29.404 28.3126C28.3773 30.3072 26.808 31.9059 24.696 33.1086C22.6133 34.3112 19.9293 34.9126 16.644 34.9126ZM27.864 14.8045L26.06 10.8885V4.15655H30.768V14.8045H27.864ZM40.9124 19.6446C39.7684 19.6446 38.7417 19.3512 37.8324 18.7645C36.9524 18.1485 36.5124 17.2099 36.5124 15.9485C36.5124 14.7752 37.0111 13.7925 38.0084 13.0005C39.0057 12.1792 40.3111 11.5779 41.9244 11.1966C43.5671 10.7859 45.2831 10.5806 47.0724 10.5806C50.0937 10.5806 52.4111 11.1966 54.0244 12.4286C55.6671 13.6605 56.4737 15.5085 56.4444 17.9725L49.0084 17.0926C49.0084 16.0365 48.6564 15.2739 47.9524 14.8045C47.2777 14.3352 46.3831 14.1005 45.2684 14.1005C44.5351 14.1005 43.8311 14.2032 43.1564 14.4085C42.4817 14.5845 41.9097 14.8779 41.4404 15.2885C40.9711 15.6699 40.6484 16.2126 40.4724 16.9165L40.6044 13.5725C41.8951 13.6312 42.9071 13.8952 43.6404 14.3645C44.4031 14.8045 44.7697 15.5232 44.7404 16.5205C44.7111 17.4299 44.3591 18.1779 43.6844 18.7645C43.0391 19.3512 42.1151 19.6446 40.9124 19.6446ZM57.1044 34.7366C54.6697 34.7366 52.8364 34.0912 51.6044 32.8006C50.4017 31.5099 49.8004 29.7059 49.8004 27.3886V26.6846H48.9204V21.5806H48.7004L49.0084 19.2046V17.0926L56.4444 17.9725V28.0486C56.4444 28.5472 56.5764 28.9579 56.8404 29.2806C57.1044 29.6032 57.4711 29.7646 57.9404 29.7646C58.4391 29.7646 58.8204 29.6032 59.0844 29.2806C59.3484 28.9579 59.4804 28.5472 59.4804 28.0486V21.2726H64.2324V27.4766C64.2324 29.6766 63.6457 31.4366 62.4724 32.7566C61.2991 34.0766 59.5097 34.7366 57.1044 34.7366ZM42.1444 34.6486C39.8271 34.6486 37.9497 34.0912 36.5124 32.9766C35.1044 31.8326 34.4004 30.3219 34.4004 28.4446C34.4004 27.0659 34.6937 25.9219 35.2804 25.0126C35.8671 24.1032 36.6884 23.3552 37.7444 22.7686C38.8297 22.1526 40.0617 21.6686 41.4404 21.3165L45.5324 20.2606C46.3244 20.0552 46.9697 19.8206 47.4684 19.5566C47.9964 19.2925 48.3777 18.9699 48.6124 18.5886C48.8764 18.1779 49.0084 17.6792 49.0084 17.0926L49.0964 21.5806H48.9204C48.7151 22.0205 48.4071 22.3872 47.9964 22.6806C47.6151 22.9446 47.1017 23.1939 46.4564 23.4286L45.6204 23.7365C45.0044 23.9712 44.4617 24.2206 43.9924 24.4846C43.5524 24.7486 43.2004 25.0566 42.9364 25.4086C42.7017 25.7312 42.5844 26.1712 42.5844 26.7286C42.5844 27.4912 42.8484 28.0779 43.3764 28.4886C43.9044 28.8992 44.5937 29.1046 45.4444 29.1046C46.0311 29.1046 46.5884 28.9726 47.1164 28.7086C47.6444 28.4446 48.0697 28.0192 48.3924 27.4326C48.7444 26.8459 48.9204 26.0539 48.9204 25.0566L50.4604 25.2766C50.4604 27.5059 50.0937 29.3099 49.3604 30.6886C48.6271 32.0672 47.6297 33.0792 46.3684 33.7246C45.1071 34.3406 43.6991 34.6486 42.1444 34.6486ZM80.5781 34.4726C78.8767 34.4726 77.3367 34.2086 75.9581 33.6806C74.6087 33.1232 73.5234 32.2579 72.7021 31.0846C71.9101 29.8819 71.4407 28.3419 71.2941 26.4646H72.4821C73.1274 27.5206 73.8314 28.3272 74.5941 28.8846C75.3861 29.4419 76.1487 29.8232 76.8821 30.0286C77.6447 30.2339 78.3194 30.3366 78.9061 30.3366C79.7861 30.3366 80.4607 30.1606 80.9301 29.8086C81.4287 29.4566 81.6781 28.9579 81.6781 28.3126C81.6781 27.8726 81.5607 27.5206 81.3261 27.2566C81.1207 26.9632 80.7687 26.7286 80.2701 26.5526C79.8007 26.3472 79.2141 26.1859 78.5101 26.0686L75.8261 25.6286C73.9487 25.3059 72.3647 24.8219 71.0741 24.1766C69.7834 23.5312 68.7861 22.6806 68.0821 21.6245C67.4074 20.5392 67.0701 19.1899 67.0701 17.5766C67.0701 15.2592 67.8181 13.5285 69.3141 12.3845C70.8101 11.2405 72.6874 10.6685 74.9461 10.6685C76.5301 10.6685 77.9527 10.9325 79.2141 11.4605C80.5047 11.9592 81.5607 12.7806 82.3821 13.9246C83.2034 15.0392 83.6727 16.5059 83.7901 18.3246H82.6901C82.1034 17.3566 81.4287 16.6232 80.6661 16.1245C79.9034 15.5965 79.1554 15.2445 78.4221 15.0686C77.7181 14.8925 77.1167 14.8045 76.6181 14.8045C75.8847 14.8045 75.2687 14.9659 74.7701 15.2885C74.3007 15.5819 74.0661 16.0365 74.0661 16.6525C74.0661 17.0632 74.1687 17.4152 74.3741 17.7086C74.6087 17.9726 74.9607 18.1926 75.4301 18.3685C75.8994 18.5445 76.5007 18.7059 77.2341 18.8525L79.9181 19.2925C81.7367 19.5859 83.3061 20.0406 84.6261 20.6566C85.9754 21.2726 87.0167 22.1086 87.7501 23.1646C88.4834 24.1912 88.8501 25.5112 88.8501 27.1246C88.8501 29.5592 88.0874 31.3926 86.5621 32.6246C85.0661 33.8566 83.0714 34.4726 80.5781 34.4726ZM67.6861 34.1646V26.4646H71.2941L72.3941 28.7086V34.1646H67.6861ZM83.7901 18.3246L82.7341 16.1245V10.9766H87.4861V18.3246H83.7901ZM92.2752 34.1646V30.1166H95.4872V15.0686H92.5832V11.0205H103.407V30.1166H106.223V34.1646H92.2752ZM99.1832 9.34855C97.7752 9.34855 96.6312 8.96722 95.7512 8.20455C94.8712 7.44188 94.4312 6.38588 94.4312 5.03655C94.4312 3.68722 94.8712 2.63122 95.7512 1.86855C96.6312 1.10588 97.7899 0.724549 99.2272 0.724549C100.635 0.724549 101.765 1.10588 102.615 1.86855C103.495 2.63122 103.935 3.68722 103.935 5.03655C103.935 6.38588 103.495 7.44188 102.615 8.20455C101.765 8.96722 100.621 9.34855 99.1832 9.34855ZM124.92 34.1646V30.1166H126.9V18.8525C126.9 17.8552 126.607 17.1219 126.02 16.6525C125.463 16.1539 124.7 15.9045 123.732 15.9045C123.087 15.9045 122.485 16.0219 121.928 16.2566C121.4 16.4912 120.96 16.8872 120.608 17.4445C120.285 17.9725 120.124 18.7205 120.124 19.6885L118.848 19.7765C118.848 17.9286 119.068 16.3299 119.508 14.9805C119.977 13.6019 120.799 12.5459 121.972 11.8126C123.145 11.0499 124.803 10.6685 126.944 10.6685C129.261 10.6685 131.153 11.3139 132.62 12.6046C134.087 13.8659 134.82 15.8752 134.82 18.6326V30.1166H137.152V34.1646H124.92ZM108.904 34.1646V30.1166H112.116V15.0686H109.212V11.0205H119.156V18.7206L120.124 18.5886V30.1166H122.104V34.1646H108.904ZM153.263 34.6926C150.681 34.6926 148.379 34.2232 146.355 33.2846C144.331 32.3459 142.732 30.9819 141.559 29.1926C140.415 27.3739 139.843 25.1739 139.843 22.5926C139.843 20.0112 140.415 17.8259 141.559 16.0365C142.732 14.2179 144.331 12.8392 146.355 11.9005C148.379 10.9619 150.681 10.4925 153.263 10.4925C155.873 10.4925 158.191 10.9619 160.215 11.9005C162.239 12.8392 163.823 14.2179 164.967 16.0365C166.14 17.8259 166.727 20.0112 166.727 22.5926C166.727 25.1739 166.14 27.3739 164.967 29.1926C163.823 30.9819 162.239 32.3459 160.215 33.2846C158.191 34.2232 155.873 34.6926 153.263 34.6926ZM153.263 30.4246C154.231 30.4246 155.052 30.1166 155.727 29.5006C156.401 28.8552 156.915 27.9312 157.267 26.7286C157.648 25.4966 157.839 24.0152 157.839 22.2846C157.839 20.7006 157.648 19.3512 157.267 18.2365C156.915 17.0925 156.401 16.2272 155.727 15.6405C155.052 15.0539 154.231 14.7606 153.263 14.7606C152.324 14.7606 151.503 15.0686 150.799 15.6846C150.124 16.3005 149.611 17.1952 149.259 18.3685C148.907 19.5125 148.731 20.9205 148.731 22.5926C148.731 24.2646 148.907 25.6872 149.259 26.8606C149.611 28.0339 150.124 28.9286 150.799 29.5446C151.503 30.1312 152.324 30.4246 153.263 30.4246Z" fill="white"/>
</svg>
