<svg width="313" height="56" viewBox="0 0 313 56" fill="none" xmlns="http://www.w3.org/2000/svg">
<path d="M0.467657 42V-2.86102e-06H32.2677V6.24H6.94766V35.76H32.2677V42H0.467657ZM3.76766 23.58V17.34H28.9677V23.58H3.76766ZM54.5131 55.8L62.2531 41.16V45.9L43.7731 10.5H51.0331L60.5131 29.88C61.5531 31.76 62.4331 33.5 63.1531 35.1C63.9131 36.7 64.4331 38.16 64.7131 39.48L63.6331 39.6C64.1131 38.32 64.6931 36.86 65.3731 35.22C66.0931 33.54 66.9331 31.7 67.8931 29.7L76.6531 10.5H83.8531L67.8331 42.24L61.1131 55.8H54.5131ZM112.816 42.6C109.016 42.6 105.616 41.92 102.616 40.56C99.6558 39.16 97.3358 37.26 95.6558 34.86C93.9758 32.42 93.1358 29.66 93.1358 26.58C93.1358 23.98 93.6358 21.66 94.6358 19.62C95.6358 17.58 96.9958 15.84 98.7158 14.4C100.476 12.92 102.516 11.78 104.836 10.98C107.196 10.18 109.676 9.78 112.276 9.78C114.716 9.78 116.996 10.16 119.116 10.92C121.236 11.68 123.096 12.74 124.696 14.1C126.296 15.46 127.536 17.08 128.416 18.96C129.296 20.8 129.716 22.84 129.676 25.08L129.616 28.08H98.4758L97.0958 23.16H124.276L123.376 23.82V22.38C123.176 21.02 122.536 19.82 121.456 18.78C120.376 17.74 119.036 16.94 117.436 16.38C115.836 15.78 114.116 15.48 112.276 15.48C109.756 15.48 107.516 15.86 105.556 16.62C103.596 17.34 102.056 18.48 100.936 20.04C99.8158 21.6 99.2558 23.64 99.2558 26.16C99.2558 28.32 99.8758 30.22 101.116 31.86C102.356 33.46 104.056 34.7 106.216 35.58C108.416 36.46 110.956 36.9 113.836 36.9C116.476 36.9 118.716 36.54 120.556 35.82C122.396 35.06 124.016 34.2 125.416 33.24L128.236 37.8C127.116 38.68 125.716 39.48 124.036 40.2C122.396 40.92 120.616 41.5 118.696 41.94C116.776 42.38 114.816 42.6 112.816 42.6ZM159.894 42.6C156.494 42.6 153.434 41.88 150.714 40.44C148.034 39 145.894 37.04 144.294 34.56C142.734 32.08 141.954 29.3 141.954 26.22C141.954 23.1 142.734 20.32 144.294 17.88C145.894 15.4 148.034 13.44 150.714 12C153.434 10.56 156.494 9.84 159.894 9.84C163.254 9.84 166.354 10.4 169.194 11.52C172.074 12.6 174.314 14.1 175.914 16.02L172.434 20.76C171.514 19.76 170.354 18.86 168.954 18.06C167.594 17.26 166.154 16.62 164.634 16.14C163.114 15.66 161.614 15.42 160.134 15.42C157.814 15.42 155.754 15.9 153.954 16.86C152.154 17.78 150.734 19.06 149.694 20.7C148.694 22.3 148.194 24.14 148.194 26.22C148.194 28.3 148.734 30.16 149.814 31.8C150.894 33.4 152.334 34.68 154.134 35.64C155.974 36.56 157.994 37.02 160.194 37.02C161.954 37.02 163.574 36.82 165.054 36.42C166.534 35.98 167.894 35.42 169.134 34.74C170.374 34.02 171.494 33.26 172.494 32.46L175.914 37.08C173.994 38.6 171.674 39.9 168.954 40.98C166.274 42.06 163.254 42.6 159.894 42.6ZM203.926 42.6C200.566 42.6 197.586 41.9 194.986 40.5C192.426 39.06 190.426 37.1 188.986 34.62C187.546 32.14 186.826 29.34 186.826 26.22C186.826 23.02 187.586 20.2 189.106 17.76C190.626 15.28 192.706 13.34 195.346 11.94C197.986 10.54 200.986 9.84 204.346 9.84C206.426 9.84 208.346 10.1 210.106 10.62C211.906 11.14 213.446 11.84 214.726 12.72C216.046 13.6 217.086 14.56 217.846 15.6C218.606 16.64 219.026 17.7 219.106 18.78L217.426 18.66V10.5H223.666V42H217.426V33.72L218.746 33.9C218.666 34.86 218.206 35.86 217.366 36.9C216.526 37.9 215.426 38.84 214.066 39.72C212.706 40.56 211.146 41.26 209.386 41.82C207.666 42.34 205.846 42.6 203.926 42.6ZM205.426 36.9C207.826 36.9 209.946 36.44 211.786 35.52C213.626 34.56 215.066 33.28 216.106 31.68C217.146 30.04 217.666 28.22 217.666 26.22C217.666 24.18 217.146 22.36 216.106 20.76C215.066 19.16 213.626 17.9 211.786 16.98C209.946 16.06 207.826 15.6 205.426 15.6C203.026 15.6 200.906 16.06 199.066 16.98C197.226 17.9 195.766 19.16 194.686 20.76C193.646 22.36 193.126 24.18 193.126 26.22C193.126 28.22 193.646 30.04 194.686 31.68C195.766 33.28 197.226 34.56 199.066 35.52C200.906 36.44 203.026 36.9 205.426 36.9ZM242.95 42V10.5H249.19V21.42L247.81 20.28C248.37 18.36 249.31 16.62 250.63 15.06C251.99 13.46 253.53 12.2 255.25 11.28C257.01 10.32 258.83 9.84 260.71 9.84C261.91 9.84 263.05 9.96 264.13 10.2C265.25 10.44 266.15 10.78 266.83 11.22L265.21 17.7C264.45 17.3 263.55 16.98 262.51 16.74C261.47 16.5 260.49 16.38 259.57 16.38C258.05 16.38 256.65 16.64 255.37 17.16C254.09 17.68 252.99 18.4 252.07 19.32C251.15 20.2 250.43 21.2 249.91 22.32C249.43 23.44 249.19 24.58 249.19 25.74V42H242.95ZM295.394 42.6C291.594 42.6 288.194 41.92 285.194 40.56C282.234 39.16 279.914 37.26 278.234 34.86C276.554 32.42 275.714 29.66 275.714 26.58C275.714 23.98 276.214 21.66 277.214 19.62C278.214 17.58 279.574 15.84 281.294 14.4C283.054 12.92 285.094 11.78 287.414 10.98C289.774 10.18 292.254 9.78 294.854 9.78C297.294 9.78 299.574 10.16 301.694 10.92C303.814 11.68 305.674 12.74 307.274 14.1C308.874 15.46 310.114 17.08 310.994 18.96C311.874 20.8 312.294 22.84 312.254 25.08L312.194 28.08H281.054L279.674 23.16H306.854L305.954 23.82V22.38C305.754 21.02 305.114 19.82 304.034 18.78C302.954 17.74 301.614 16.94 300.014 16.38C298.414 15.78 296.694 15.48 294.854 15.48C292.334 15.48 290.094 15.86 288.134 16.62C286.174 17.34 284.634 18.48 283.514 20.04C282.394 21.6 281.834 23.64 281.834 26.16C281.834 28.32 282.454 30.22 283.694 31.86C284.934 33.46 286.634 34.7 288.794 35.58C290.994 36.46 293.534 36.9 296.414 36.9C299.054 36.9 301.294 36.54 303.134 35.82C304.974 35.06 306.594 34.2 307.994 33.24L310.814 37.8C309.694 38.68 308.294 39.48 306.614 40.2C304.974 40.92 303.194 41.5 301.274 41.94C299.354 42.38 297.394 42.6 295.394 42.6Z" fill="white"/>
</svg>
